<?xml version="1.0" standalone="no"?>
<!DOCTYPE svg PUBLIC "-//W3C//DTD SVG 20010904//EN"
 "http://www.w3.org/TR/2001/REC-SVG-20010904/DTD/svg10.dtd">
<svg version="1.0" xmlns="http://www.w3.org/2000/svg"
 width="1024.000000pt" height="1024.000000pt" viewBox="0 0 1024.000000 1024.000000"
 preserveAspectRatio="xMidYMid meet">
<metadata>
Created by potrace 1.11, written by Peter Selinger 2001-2013
</metadata>
<g transform="translate(0.000000,1024.000000) scale(0.100000,-0.100000)"
fill="#000000" stroke="none">
<path d="M960 9130 c-184 -32 -335 -182 -369 -364 -15 -84 -16 -5807 0 -5892
33 -179 184 -330 363 -363 42 -8 1269 -11 4170 -11 4489 0 4186 -4 4298 57
111 60 202 183 227 306 8 37 10 918 9 2987 l-3 2935 -23 57 c-51 126 -150 222
-277 270 l-60 23 -4145 1 c-2280 1 -4165 -2 -4190 -6z m7800 -3310 l0 -2420
-3640 0 -3640 0 0 2420 0 2420 3640 0 3640 0 0 -2420z"/>
<path d="M6605 7250 c-63 -10 -128 -35 -180 -71 -22 -15 -438 -426 -925 -913
-487 -487 -889 -886 -895 -886 -5 0 -183 173 -395 384 -236 236 -400 392 -425
404 -282 140 -604 -20 -657 -327 -15 -88 0 -182 43 -271 29 -58 86 -119 568
-603 295 -296 562 -558 594 -582 90 -68 153 -89 272 -89 119 0 183 21 272 89
32 24 531 518 1109 1097 792 794 1057 1065 1076 1103 91 173 72 365 -49 513
-91 112 -260 174 -408 152z"/>
<path d="M3130 1886 c-222 -62 -370 -285 -333 -501 31 -182 161 -324 338 -371
41 -11 401 -14 1985 -14 2137 0 1997 -4 2108 63 174 104 257 307 206 502 -39
152 -167 280 -319 320 -52 13 -282 15 -2000 14 -1523 -1 -1950 -3 -1985 -13z"/>
</g>
</svg>
