<?xml version="1.0" encoding="UTF-8" standalone="no"?>
<svg
   xmlns:dc="http://purl.org/dc/elements/1.1/"
   xmlns:cc="http://creativecommons.org/ns#"
   xmlns:rdf="http://www.w3.org/1999/02/22-rdf-syntax-ns#"
   xmlns:svg="http://www.w3.org/2000/svg"
   xmlns="http://www.w3.org/2000/svg"
   xmlns:sodipodi="http://sodipodi.sourceforge.net/DTD/sodipodi-0.dtd"
   xmlns:inkscape="http://www.inkscape.org/namespaces/inkscape"
   width="1024mm"
   height="1024mm"
   viewBox="0 0 1024 1024"
   version="1.1"
   id="svg237"
   inkscape:version="1.0.1 (c497b03c, 2020-09-10)"
   sodipodi:docname="gameci_logo_dark_background.svg"
   inkscape:export-filename="/Users/gableroux/repos/gameci/logo/gameci_logo_dark_280.png"
   inkscape:export-xdpi="6.9499998"
   inkscape:export-ydpi="6.9499998">
  <defs
     id="defs231" />
  <sodipodi:namedview
     id="base"
     pagecolor="#373445"
     bordercolor="#666666"
     borderopacity="1.0"
     inkscape:pageopacity="0"
     inkscape:pageshadow="2"
     inkscape:zoom="0.10077485"
     inkscape:cx="1179.4861"
     inkscape:cy="1453.5445"
     inkscape:document-units="px"
     inkscape:current-layer="layer1"
     inkscape:document-rotation="0"
     showgrid="false"
     inkscape:window-width="1536"
     inkscape:window-height="907"
     inkscape:window-x="0"
     inkscape:window-y="25"
     inkscape:window-maximized="0"
     inkscape:snap-global="true"
     inkscape:snap-page="true" />
  <metadata
     id="metadata234">
    <rdf:RDF>
      <cc:Work
         rdf:about="">
        <dc:format>image/svg+xml</dc:format>
        <dc:type
           rdf:resource="http://purl.org/dc/dcmitype/StillImage" />
        <dc:title></dc:title>
      </cc:Work>
    </rdf:RDF>
  </metadata>
  <g
     inkscape:groupmode="layer"
     id="layer2"
     inkscape:label="Layer 2"
     style="display:inline">
    <g
       id="g1186"
       transform="matrix(0.9220389,0,0,0.90914328,29.049644,28.643357)"
       style="display:inline;mix-blend-mode:normal">
      <g
         id="g1176">
        <path
           id="rect341"
           style="fill:#373445;fill-opacity:1;stroke-width:0.264583"
           d="m -31.505877,-31.505877 c 370.194057,0 740.388117,0 1110.582177,0 0,375.445027 0,750.890047 0,1126.335077 -370.19406,0 -740.38812,0 -1110.582177,0 0,-375.44503 0,-750.89005 0,-1126.335077 z" />
      </g>
    </g>
  </g>
  <g
     inkscape:label="Layer 1"
     inkscape:groupmode="layer"
     id="layer1"
     style="display:inline;mix-blend-mode:normal">
    <g
       id="g306"
       transform="translate(-18.348939,1.4976508)">
      <path
         d="m 261.61145,673.91592 c -4.13529,0 -8.26748,-1.57813 -11.42071,-4.73136 l -37.37152,-37.37151 c -6.30965,-6.30648 -6.30965,-16.53185 0,-22.84143 6.30967,-6.30645 16.53184,-6.30645 22.84142,0 l 25.95081,25.95072 63.32223,-63.31902 c 6.31277,-6.30656 16.53495,-6.30344 22.84141,0 6.30958,6.30335 6.30958,16.53175 0,22.84142 l -74.74293,74.73982 c -3.15323,3.15323 -7.28853,4.73136 -11.42071,4.73136"
         style="fill:#3dc094;fill-opacity:1;fill-rule:nonzero;stroke:none;stroke-width:3.13755"
         id="path88" />
      <path
         d="m 278.38831,440.11277 h -92.72118 c -24.52948,0 -42.73042,-4.90087 -54.59983,-14.71517 -11.87563,-9.8111 -17.80882,-24.92161 -17.80882,-45.33144 v -91.83642 c 0,-20.40663 5.93319,-35.51713 17.80882,-45.32833 11.86941,-9.81109 30.07035,-14.7214 54.59983,-14.7214 h 73.58834 c 3.7242,0 6.42572,0.84047 8.09173,2.50379 1.66919,1.66913 2.50379,4.37065 2.50379,8.09487 v 35.61764 c 0,3.72741 -0.83423,6.42564 -2.50379,8.09483 -1.66601,1.6661 -4.36753,2.5007 -8.09173,2.5007 h -61.22319 c -6.08687,0 -10.59874,1.22672 -13.54172,3.67716 -2.94307,2.45987 -4.41456,6.13393 -4.41456,11.03792 v 70.35043 c 0,4.9071 1.1264,8.53732 3.38546,10.89356 2.25271,2.35315 5.63817,3.53293 10.15306,3.53293 h 28.55181 v -45.92138 c 0,-3.72741 0.83424,-6.42573 2.50381,-8.09483 1.66287,-1.6661 4.36431,-2.5007 8.09483,-2.5007 h 45.62334 c 3.72422,0 6.42564,0.83426 8.09486,2.5007 1.66288,1.6691 2.50068,4.36742 2.50068,8.09483 v 90.95477 c 0,3.73055 -0.8378,6.42886 -2.50068,8.09174 -1.66922,1.66921 -4.37064,2.5038 -8.09486,2.5038"
         style="fill:#3dc094;fill-opacity:1;fill-rule:nonzero;stroke:none;stroke-width:3.13755"
         id="path92" />
      <path
         d="m 401.7182,289.99419 -13.83344,44.7416 h 46.20998 l -13.83354,-44.7416 c -0.78711,-1.76329 -1.61583,-3.04027 -2.50379,-3.82783 -0.88138,-0.78088 -1.91077,-1.17657 -3.08734,-1.17657 h -7.36074 c -1.17656,0 -2.20568,0.39578 -3.09044,1.17657 -0.88138,0.7871 -1.71945,2.06454 -2.50069,3.82783 M 384.93857,429.5183 c 0,3.72742 -0.83423,6.42884 -2.50379,8.09183 -1.66601,1.66911 -4.36432,2.50372 -8.09174,2.50372 h -43.2701 c -3.72741,0 -6.42573,-0.83426 -8.09494,-2.50372 -1.66919,-1.66299 -2.5006,-4.36441 -2.5006,-8.09183 v -77.71109 c 0,-5.88605 0.9287,-12.65685 2.79552,-20.30629 1.86371,-7.65558 4.75653,-16.58513 8.68479,-26.78844 l 25.60882,-66.81431 c 1.17657,-3.33841 2.99003,-5.78885 5.44358,-7.36074 2.45044,-1.5688 5.63828,-2.35635 9.56644,-2.35635 h 79.17946 c 3.72742,0 6.81795,0.7871 9.27151,2.35635 2.45354,1.57189 4.27021,4.02233 5.44678,7.36074 l 25.60874,66.81431 c 3.92201,10.20331 6.81795,19.13286 8.68167,26.78844 1.86371,7.64944 2.79872,14.42024 2.79872,20.30629 v 77.71109 c 0,3.72742 -0.84047,6.42884 -2.50381,8.09183 -1.66919,1.66911 -4.36742,2.50372 -8.09483,2.50372 H 448.5181 c -3.92824,0 -6.82106,-0.83426 -8.68478,-2.50372 -1.86369,-1.66299 -2.79241,-4.36441 -2.79241,-8.09183 v -41.21179 h -52.10234 z"
         style="fill:#3dc094;fill-opacity:1;fill-rule:nonzero;stroke:none;stroke-width:3.13755"
         id="path96" />
      <path
         d="m 594.22167,440.11277 h -43.85994 c -3.72743,0 -6.42884,-0.83423 -8.09493,-2.5038 -1.66921,-1.66288 -2.4975,-4.36119 -2.4975,-8.09174 V 238.77867 c 0,-3.72422 0.82803,-6.42574 2.4975,-8.09487 1.66609,-1.66297 4.3675,-2.50379 8.09493,-2.50379 h 47.39276 c 3.13449,0 5.7386,0.69372 7.79691,2.06134 2.06445,1.37739 3.9753,3.63643 5.74172,6.77088 l 26.4935,47.97961 c 0.97583,1.76641 1.81043,3.0434 2.50069,3.82463 0.68393,0.7871 1.61584,1.17658 2.79552,1.17658 h 2.64815 c 1.17968,0 2.10839,-0.38868 2.79872,-1.17658 0.68393,-0.78089 1.51543,-2.05822 2.50061,-3.82463 l 26.19547,-47.97961 c 1.76961,-3.13445 3.68038,-5.39349 5.74169,-6.77088 2.05832,-1.36798 4.65933,-2.06134 7.80003,-2.06134 h 47.68466 c 3.72422,0 6.42573,0.84047 8.09486,2.50379 1.66296,1.66913 2.50379,4.37065 2.50379,8.09487 v 190.73856 c 0,3.73055 -0.84047,6.42886 -2.50379,8.09174 -1.66913,1.66921 -4.37064,2.5038 -8.09486,2.5038 h -45.33153 c -3.72742,0 -6.42574,-0.83423 -8.09484,-2.5038 -1.6692,-1.66288 -2.49749,-4.36119 -2.49749,-8.09174 V 325.90559 l -17.36956,32.08464 c -1.76641,3.33841 -3.87806,5.7386 -6.32843,7.21017 -2.45363,1.4746 -5.54719,2.2088 -9.27151,2.2088 h -11.77218 c -3.73364,0 -6.82098,-0.73373 -9.27461,-2.2088 -2.45668,-1.47157 -4.56203,-3.87176 -6.32845,-7.21017 l -17.36635,-32.08464 v 103.61164 c 0,3.73055 -0.8378,6.42886 -2.50068,8.09174 -1.66912,1.66921 -4.37063,2.5038 -8.09486,2.5038"
         style="fill:#3dc094;fill-opacity:1;fill-rule:nonzero;stroke:none;stroke-width:3.13755"
         id="path100" />
      <path
         d="M 936.84384,440.11277 H 800.26581 c -3.73054,0 -6.43196,-0.83423 -8.09494,-2.5038 -1.67222,-1.66288 -2.5006,-4.36119 -2.5006,-8.09174 V 238.77867 c 0,-3.72422 0.82804,-6.42574 2.5006,-8.09487 1.66298,-1.66297 4.3644,-2.50379 8.09494,-2.50379 h 136.57803 c 3.72421,0 6.42573,0.84047 8.09171,2.50379 1.6661,1.66913 2.50382,4.37065 2.50382,8.09487 v 34.44096 c 0,3.72743 -0.83781,6.42574 -2.50382,8.09184 -1.66598,1.6692 -4.3675,2.5037 -8.09171,2.5037 h -81.24401 v 22.66265 h 57.39856 c 3.72741,0 6.42573,0.8378 8.09483,2.50381 1.6661,1.66599 2.50381,4.37054 2.50381,8.09173 v 31.4948 c 0,3.73374 -0.8378,6.43204 -2.50381,8.09494 -1.6691,1.6723 -4.36742,2.5038 -8.09483,2.5038 h -57.39856 v 25.31694 h 81.24401 c 3.72421,0 6.42573,0.83424 8.09171,2.49747 1.6661,1.67233 2.50382,4.37064 2.50382,8.09494 v 34.44098 c 0,3.73055 -0.83781,6.42886 -2.50382,8.09174 -1.66598,1.66921 -4.3675,2.5038 -8.09171,2.5038"
         style="fill:#3dc094;fill-opacity:1;fill-rule:nonzero;stroke:none;stroke-width:3.13755"
         id="path104" />
      <path
         d="M 148.66152,706.166 H 411.93095 V 531.22506 H 148.66152 Z m 279.42159,32.30119 H 132.51247 c -8.92011,0 -16.15216,-7.23205 -16.15216,-16.15215 V 515.0729 c 0,-8.9169 7.23205,-16.14895 16.15216,-16.14895 h 295.57064 c 8.9201,0 16.15215,7.23205 16.15215,16.14895 v 207.24214 c 0,8.9201 -7.23205,16.15215 -16.15215,16.15215"
         style="fill:#ffffff;fill-opacity:1;fill-rule:nonzero;stroke:none;stroke-width:3.13755"
         id="path106" />
      <path
         d="m 348.24514,792.82466 h -135.8972 c -8.92002,0 -16.14895,-7.23205 -16.14895,-16.14895 0,-8.92012 7.22893,-16.15536 16.14895,-16.15536 h 135.8972 c 8.92002,0 16.15207,7.23524 16.15207,16.15536 0,8.9169 -7.23205,16.14895 -16.15207,16.14895"
         style="fill:#ffffff;fill-opacity:1;fill-rule:nonzero;stroke:none;stroke-width:3.13755"
         id="path110" />
      <path
         d="m 692.28577,788.09082 h -98.34371 c -33.59073,0 -58.51233,-6.71435 -74.7649,-20.15254 -16.26201,-13.43187 -24.38513,-34.12098 -24.38513,-62.06722 v -125.3486 c 0,-27.94624 8.12312,-48.70437 24.38513,-62.27115 16.25257,-13.5637 41.17417,-20.35657 74.7649,-20.35657 h 98.34371 c 5.1016,0 8.79773,1.14838 11.08186,3.42938 2.28101,2.28413 3.42929,5.98016 3.42929,11.08187 v 48.77024 c 0,5.10483 -1.14828,8.80086 -3.42929,11.08497 -2.28413,2.28101 -5.98026,3.42307 -11.08186,3.42307 h -81.01178 c -8.33338,0 -14.50813,1.68175 -18.5399,5.03581 -4.03488,3.36659 -6.04605,8.40237 -6.04605,15.11682 v 95.92457 c 0,6.72066 2.01117,11.62465 6.04605,14.71207 4.03177,3.09355 10.20652,4.63415 18.5399,4.63415 h 81.01178 c 5.1016,0 8.79773,1.14829 11.08186,3.42929 2.28101,2.28422 3.42929,5.98025 3.42929,11.08195 v 47.96385 c 0,5.10481 -1.14828,8.80394 -3.42929,11.07872 -2.28413,2.29036 -5.98026,3.42932 -11.08186,3.42932"
         style="fill:#ffffff;fill-opacity:1;fill-rule:nonzero;stroke:none;stroke-width:3.13755"
         id="path114" />
      <path
         d="m 760.39904,788.09082 c -5.10481,0 -8.80707,-1.13896 -11.08497,-3.42932 -2.28733,-2.27478 -3.42308,-5.97391 -3.42308,-11.07872 v -47.96385 c 0,-5.1017 1.13575,-8.79773 3.42308,-11.08195 2.2779,-2.281 5.98016,-3.42929 11.08497,-3.42929 h 39.90039 V 575.68427 h -39.90039 c -5.10481,0 -8.80707,-1.14206 -11.08497,-3.42307 -2.28733,-2.28411 -3.42308,-5.98014 -3.42308,-11.08497 v -48.77024 c 0,-5.10171 1.13575,-8.79774 3.42308,-11.08187 2.2779,-2.281 5.98016,-3.42938 11.08497,-3.42938 h 171.69981 c 5.10171,0 8.79462,1.14838 11.08507,3.42938 2.2747,2.28413 3.42307,5.98016 3.42307,11.08187 v 48.77024 c 0,5.10483 -1.14837,8.80086 -3.42307,11.08497 -2.29045,2.28101 -5.98336,3.42307 -11.08507,3.42307 h -39.09397 v 135.42342 h 39.09397 c 5.10171,0 8.79462,1.14829 11.08507,3.42929 2.2747,2.28422 3.42307,5.98025 3.42307,11.08195 v 47.96385 c 0,5.10481 -1.14837,8.80394 -3.42307,11.07872 -2.29045,2.29036 -5.98336,3.42932 -11.08507,3.42932 z"
         style="fill:#ffffff;fill-opacity:1;fill-rule:nonzero;stroke:none;stroke-width:3.13755"
         id="path118" />
    </g>
  </g>
</svg>
