<svg xmlns="http://www.w3.org/2000/svg" width="1024mm" height="1024mm" viewBox="0 0 1024 1024">
  <path d="M0 0h1024v1024H0V0z" fill="#373445"/>
  <g style="mix-blend-mode:normal">
    <path d="M243.263 675.414a16.1 16.1 0 01-11.421-4.732l-37.372-37.371c-6.31-6.307-6.31-16.532 0-22.842 6.31-6.306 16.532-6.306 22.842 0l25.95 25.951 63.323-63.319c6.313-6.307 16.535-6.303 22.841 0 6.31 6.303 6.31 16.532 0 22.841l-74.743 74.74a16.105 16.105 0 01-11.42 4.732M260.04 441.61h-92.722c-24.53 0-42.73-4.9-54.6-14.715-11.875-9.81-17.808-24.921-17.808-45.331v-91.837c0-20.406 5.933-35.517 17.808-45.328 11.87-9.811 30.07-14.721 54.6-14.721h73.589c3.724 0 6.425.84 8.091 2.503 1.67 1.67 2.504 4.371 2.504 8.095v35.618c0 3.727-.834 6.426-2.504 8.095-1.666 1.666-4.367 2.5-8.091 2.5h-61.224c-6.087 0-10.598 1.227-13.541 3.678-2.943 2.46-4.415 6.134-4.415 11.038v70.35c0 4.907 1.126 8.537 3.386 10.894 2.252 2.353 5.638 3.532 10.153 3.532h28.551v-45.92c0-3.728.835-6.427 2.504-8.096 1.663-1.666 4.365-2.5 8.095-2.5h45.623c3.725 0 6.426.834 8.095 2.5 1.663 1.67 2.5 4.368 2.5 8.095v90.955c0 3.73-.837 6.429-2.5 8.092-1.669 1.669-4.37 2.503-8.095 2.503M383.37 291.492l-13.834 44.741h46.21l-13.834-44.741c-.787-1.763-1.616-3.04-2.504-3.828-.88-.78-1.91-1.177-3.087-1.177h-7.36c-1.177 0-2.206.396-3.091 1.177-.881.787-1.72 2.065-2.5 3.828m-16.78 139.524c0 3.727-.835 6.429-2.504 8.092-1.666 1.669-4.364 2.504-8.092 2.504h-43.27c-3.727 0-6.426-.835-8.095-2.504-1.67-1.663-2.5-4.365-2.5-8.092v-77.711c0-5.886.928-12.657 2.795-20.306 1.864-7.656 4.757-16.586 8.685-26.789l25.609-66.814c1.176-3.339 2.99-5.789 5.443-7.36 2.45-1.57 5.638-2.357 9.567-2.357h79.18c3.726 0 6.817.787 9.27 2.356 2.454 1.572 4.27 4.022 5.447 7.36l25.61 66.815c3.921 10.203 6.817 19.133 8.68 26.789 1.864 7.649 2.8 14.42 2.8 20.306v77.711c0 3.727-.841 6.429-2.504 8.092-1.67 1.669-4.368 2.504-8.095 2.504h-44.447c-3.928 0-6.82-.835-8.685-2.504-1.863-1.663-2.792-4.365-2.792-8.092v-41.212H366.59zM575.873 441.61h-43.86c-3.728 0-6.429-.834-8.095-2.503-1.67-1.663-2.498-4.362-2.498-8.092V240.276c0-3.724.828-6.425 2.498-8.095 1.666-1.663 4.367-2.503 8.095-2.503h47.393c3.134 0 5.738.693 7.796 2.061 2.065 1.377 3.976 3.636 5.742 6.77l26.494 47.98c.976 1.767 1.81 3.044 2.5 3.825.684.787 1.616 1.177 2.796 1.177h2.648c1.18 0 2.108-.389 2.799-1.177.684-.78 1.515-2.058 2.5-3.825l26.196-47.98c1.77-3.134 3.68-5.393 5.742-6.77 2.058-1.368 4.659-2.061 7.8-2.061h47.684c3.724 0 6.426.84 8.095 2.503 1.663 1.67 2.504 4.371 2.504 8.095v190.739c0 3.73-.84 6.429-2.504 8.092-1.669 1.669-4.37 2.503-8.095 2.503h-45.331c-3.728 0-6.426-.834-8.095-2.503-1.67-1.663-2.498-4.362-2.498-8.092V327.403l-17.37 32.085c-1.766 3.338-3.877 5.738-6.328 7.21-2.453 1.475-5.547 2.209-9.271 2.209h-11.772c-3.734 0-6.821-.734-9.275-2.209-2.457-1.472-4.562-3.872-6.328-7.21l-17.367-32.085v103.612c0 3.73-.838 6.429-2.5 8.092-1.67 1.669-4.371 2.503-8.095 2.503M918.495 441.61H781.917c-3.73 0-6.432-.834-8.095-2.503-1.672-1.663-2.5-4.362-2.5-8.092V240.276c0-3.724.827-6.425 2.5-8.095 1.663-1.663 4.364-2.503 8.095-2.503h136.578c3.724 0 6.426.84 8.092 2.503 1.666 1.67 2.503 4.371 2.503 8.095v34.441c0 3.728-.837 6.426-2.503 8.092-1.666 1.67-4.368 2.504-8.092 2.504H837.25v22.662h57.398c3.728 0 6.426.838 8.095 2.504 1.666 1.666 2.504 4.37 2.504 8.092v31.495c0 3.734-.838 6.432-2.504 8.095-1.669 1.672-4.367 2.504-8.095 2.504h-57.398v25.316h81.244c3.724 0 6.426.835 8.092 2.498 1.666 1.672 2.503 4.37 2.503 8.095v34.44c0 3.731-.837 6.43-2.503 8.093-1.666 1.669-4.368 2.503-8.092 2.503" fill="#3dc094"/>
    <path d="M130.313 707.664h263.269V532.723h-263.27zm279.421 32.3h-295.57c-8.92 0-16.153-7.231-16.153-16.151V516.57c0-8.917 7.232-16.15 16.153-16.15h295.57c8.92 0 16.152 7.233 16.152 16.15v207.242c0 8.92-7.232 16.152-16.152 16.152M329.896 794.322H194c-8.92 0-16.149-7.232-16.149-16.149 0-8.92 7.229-16.155 16.149-16.155h135.897c8.92 0 16.152 7.235 16.152 16.155 0 8.917-7.232 16.15-16.152 16.15M673.937 789.588h-98.344c-33.59 0-58.512-6.714-74.765-20.152-16.262-13.432-24.385-34.121-24.385-62.067V582.02c0-27.946 8.123-48.704 24.385-62.271 16.253-13.564 41.174-20.357 74.765-20.357h98.344c5.101 0 8.798 1.149 11.082 3.43 2.28 2.284 3.429 5.98 3.429 11.082v48.77c0 5.105-1.148 8.8-3.43 11.085-2.283 2.28-5.98 3.423-11.081 3.423h-81.012c-8.333 0-14.508 1.682-18.54 5.036-4.035 3.366-6.046 8.402-6.046 15.117v95.924c0 6.72 2.011 11.625 6.046 14.712 4.032 3.094 10.207 4.634 18.54 4.634h81.012c5.101 0 8.798 1.149 11.082 3.43 2.28 2.284 3.429 5.98 3.429 11.082v47.963c0 5.105-1.148 8.804-3.43 11.08-2.283 2.29-5.98 3.428-11.081 3.428M742.05 789.588c-5.105 0-8.807-1.138-11.085-3.429-2.287-2.275-3.423-5.974-3.423-11.079v-47.963c0-5.102 1.136-8.798 3.423-11.082 2.278-2.281 5.98-3.43 11.085-3.43h39.9V577.182h-39.9c-5.105 0-8.807-1.142-11.085-3.423-2.287-2.284-3.423-5.98-3.423-11.085v-48.77c0-5.102 1.136-8.798 3.423-11.082 2.278-2.281 5.98-3.43 11.085-3.43h171.7c5.102 0 8.795 1.149 11.085 3.43 2.275 2.284 3.423 5.98 3.423 11.082v48.77c0 5.105-1.148 8.8-3.423 11.085-2.29 2.28-5.983 3.423-11.085 3.423h-39.094v135.423h39.094c5.102 0 8.795 1.149 11.085 3.43 2.275 2.284 3.423 5.98 3.423 11.082v47.963c0 5.105-1.148 8.804-3.423 11.08-2.29 2.29-5.983 3.428-11.085 3.428z" fill="#fff"/>
  </g>
</svg>
