<svg width="302" height="248" viewBox="0 0 302 248" fill="none" xmlns="http://www.w3.org/2000/svg">
<path d="M2.83682 0V2.26632H5.02523V2.8329H2.83682V5.09922H2.18841V2.8329H0V2.26632H2.18841V0H2.83682Z" fill="#9CA3AF"/>
<path d="M20.2665 0V2.26632H22.4549V2.8329H20.2665V5.09922H19.6181V2.8329H17.4297V2.26632H19.6181V0H20.2665Z" fill="#9CA3AF"/>
<path d="M37.7665 0V2.26632H39.9549V2.8329H37.7665V5.09922H37.1181V2.8329H34.9297V2.26632H37.1181V0H37.7665Z" fill="#9CA3AF"/>
<path d="M55.1962 0V2.26632H57.3846V2.8329H55.1962V5.09922H54.5478V2.8329H52.3594V2.26632H54.5478V0H55.1962Z" fill="#9CA3AF"/>
<path d="M72.704 0V2.26632H74.8924V2.8329H72.704V5.09922H72.0556V2.8329H69.8672V2.26632H72.0556V0H72.704Z" fill="#9CA3AF"/>
<path d="M90.1337 0V2.26632H92.3221V2.8329H90.1337V5.09922H89.4853V2.8329H87.2969V2.26632H89.4853V0H90.1337Z" fill="#9CA3AF"/>
<path d="M107.634 0V2.26632H109.822V2.8329H107.634V5.09922H106.985V2.8329H104.797V2.26632H106.985V0H107.634Z" fill="#9CA3AF"/>
<path d="M125.063 0V2.26632H127.252V2.8329H125.063V5.09922H124.415V2.8329H122.227V2.26632H124.415V0H125.063Z" fill="#9CA3AF"/>
<path d="M142.571 0V2.26632H144.76V2.8329H142.571V5.09922H141.923V2.8329H139.734V2.26632H141.923V0H142.571Z" fill="#9CA3AF"/>
<path d="M159.998 0V2.26632H162.186V2.8329H159.998V5.09922H159.35V2.8329H157.242V2.26632H159.431V0H159.998Z" fill="#9CA3AF"/>
<path d="M177.501 0V2.26632H179.689V2.8329H177.501V5.09922H176.852V2.8329H174.664V2.26632H176.852V0H177.501Z" fill="#9CA3AF"/>
<path d="M194.931 0V2.26632H197.119V2.8329H194.931V5.09922H194.282V2.8329H192.094V2.26632H194.282V0H194.931Z" fill="#9CA3AF"/>
<path d="M212.438 0V2.26632H214.627V2.8329H212.438V5.09922H211.79V2.8329H209.602V2.26632H211.79V0H212.438Z" fill="#9CA3AF"/>
<path d="M229.946 0V2.26632H232.135V2.8329H229.946V5.09922H229.298V2.8329H227.109V2.26632H229.298V0H229.946Z" fill="#9CA3AF"/>
<path d="M247.368 0V2.26632H249.556V2.8329H247.368V5.09922H246.72V2.8329H244.531V2.26632H246.72V0H247.368Z" fill="#9CA3AF"/>
<path d="M264.876 0V2.26632H267.064V2.8329H264.876V5.09922H264.227V2.8329H262.039V2.26632H264.227V0H264.876Z" fill="#9CA3AF"/>
<path d="M282.306 0V2.26632H284.494V2.8329H282.306V5.09922H281.657V2.8329H279.469V2.26632H281.657V0H282.306Z" fill="#9CA3AF"/>
<path d="M299.813 0V2.26632H302.002V2.8329H299.813V5.09922H299.165V2.8329H296.977V2.26632H299.165V0H299.813Z" fill="#9CA3AF"/>
<path d="M2.83682 20.2349V22.5012H5.02523V23.0678H2.83682V25.3341H2.18841V23.0678H0V22.5012H2.18841V20.2349H2.83682Z" fill="#9CA3AF"/>
<path d="M20.2665 20.2349V22.5012H22.4549V23.0678H20.2665V25.3341H19.6181V23.0678H17.4297V22.5012H19.6181V20.2349H20.2665Z" fill="#9CA3AF"/>
<path d="M37.7665 20.2349V22.5012H39.9549V23.0678H37.7665V25.3341H37.1181V23.0678H34.9297V22.5012H37.1181V20.2349H37.7665Z" fill="#9CA3AF"/>
<path d="M55.1962 20.2349V22.5012H57.3846V23.0678H55.1962V25.3341H54.5478V23.0678H52.3594V22.5012H54.5478V20.2349H55.1962Z" fill="#9CA3AF"/>
<path d="M72.704 20.2349V22.5012H74.8924V23.0678H72.704V25.3341H72.0556V23.0678H69.8672V22.5012H72.0556V20.2349H72.704Z" fill="#9CA3AF"/>
<path d="M90.1337 20.2349V22.5012H92.3221V23.0678H90.1337V25.3341H89.4853V23.0678H87.2969V22.5012H89.4853V20.2349H90.1337Z" fill="#9CA3AF"/>
<path d="M107.634 20.2349V22.5012H109.822V23.0678H107.634V25.3341H106.985V23.0678H104.797V22.5012H106.985V20.2349H107.634Z" fill="#9CA3AF"/>
<path d="M125.063 20.2349V22.5012H127.252V23.0678H125.063V25.3341H124.415V23.0678H122.227V22.5012H124.415V20.2349H125.063Z" fill="#9CA3AF"/>
<path d="M142.571 20.2349V22.5012H144.76V23.0678H142.571V25.3341H141.923V23.0678H139.734V22.5012H141.923V20.2349H142.571Z" fill="#9CA3AF"/>
<path d="M159.998 20.2349V22.5012H162.186V23.0678H159.998V25.3341H159.35V23.0678H157.242V22.5012H159.431V20.2349H159.998Z" fill="#9CA3AF"/>
<path d="M177.501 20.2349V22.5012H179.689V23.0678H177.501V25.3341H176.852V23.0678H174.664V22.5012H176.852V20.2349H177.501Z" fill="#9CA3AF"/>
<path d="M194.931 20.2349V22.5012H197.119V23.0678H194.931V25.3341H194.282V23.0678H192.094V22.5012H194.282V20.2349H194.931Z" fill="#9CA3AF"/>
<path d="M212.438 20.2349V22.5012H214.627V23.0678H212.438V25.3341H211.79V23.0678H209.602V22.5012H211.79V20.2349H212.438Z" fill="#9CA3AF"/>
<path d="M229.946 20.2349V22.5012H232.135V23.0678H229.946V25.3341H229.298V23.0678H227.109V22.5012H229.298V20.2349H229.946Z" fill="#9CA3AF"/>
<path d="M247.368 20.2349V22.5012H249.556V23.0678H247.368V25.3341H246.72V23.0678H244.531V22.5012H246.72V20.2349H247.368Z" fill="#9CA3AF"/>
<path d="M264.876 20.2349V22.5012H267.064V23.0678H264.876V25.3341H264.227V23.0678H262.039V22.5012H264.227V20.2349H264.876Z" fill="#9CA3AF"/>
<path d="M282.306 20.2349V22.5012H284.494V23.0678H282.306V25.3341H281.657V23.0678H279.469V22.5012H281.657V20.2349H282.306Z" fill="#9CA3AF"/>
<path d="M299.813 20.2349V22.5012H302.002V23.0678H299.813V25.3341H299.165V23.0678H296.977V22.5012H299.165V20.2349H299.813Z" fill="#9CA3AF"/>
<path d="M2.83682 40.4702V42.7365H5.02523V43.3031H2.83682V45.5694H2.18841V43.3031H0V42.7365H2.18841V40.4702H2.83682Z" fill="#9CA3AF"/>
<path d="M20.2665 40.4702V42.7365H22.4549V43.3031H20.2665V45.5694H19.6181V43.3031H17.4297V42.7365H19.6181V40.4702H20.2665Z" fill="#9CA3AF"/>
<path d="M37.7665 40.4702V42.7365H39.9549V43.3031H37.7665V45.5694H37.1181V43.3031H34.9297V42.7365H37.1181V40.4702H37.7665Z" fill="#9CA3AF"/>
<path d="M55.1962 40.4702V42.7365H57.3846V43.3031H55.1962V45.5694H54.5478V43.3031H52.3594V42.7365H54.5478V40.4702H55.1962Z" fill="#9CA3AF"/>
<path d="M72.704 40.4702V42.7365H74.8924V43.3031H72.704V45.5694H72.0556V43.3031H69.8672V42.7365H72.0556V40.4702H72.704Z" fill="#9CA3AF"/>
<path d="M90.1337 40.4702V42.7365H92.3221V43.3031H90.1337V45.5694H89.4853V43.3031H87.2969V42.7365H89.4853V40.4702H90.1337Z" fill="#9CA3AF"/>
<path d="M107.634 40.4702V42.7365H109.822V43.3031H107.634V45.5694H106.985V43.3031H104.797V42.7365H106.985V40.4702H107.634Z" fill="#9CA3AF"/>
<path d="M125.063 40.4702V42.7365H127.252V43.3031H125.063V45.5694H124.415V43.3031H122.227V42.7365H124.415V40.4702H125.063Z" fill="#9CA3AF"/>
<path d="M142.571 40.4702V42.7365H144.76V43.3031H142.571V45.5694H141.923V43.3031H139.734V42.7365H141.923V40.4702H142.571Z" fill="#9CA3AF"/>
<path d="M159.998 40.4702V42.7365H162.186V43.3031H159.998V45.5694H159.35V43.3031H157.242V42.7365H159.431V40.4702H159.998Z" fill="#9CA3AF"/>
<path d="M177.501 40.4702V42.7365H179.689V43.3031H177.501V45.5694H176.852V43.3031H174.664V42.7365H176.852V40.4702H177.501Z" fill="#9CA3AF"/>
<path d="M194.931 40.4702V42.7365H197.119V43.3031H194.931V45.5694H194.282V43.3031H192.094V42.7365H194.282V40.4702H194.931Z" fill="#9CA3AF"/>
<path d="M212.438 40.4702V42.7365H214.627V43.3031H212.438V45.5694H211.79V43.3031H209.602V42.7365H211.79V40.4702H212.438Z" fill="#9CA3AF"/>
<path d="M229.946 40.4702V42.7365H232.135V43.3031H229.946V45.5694H229.298V43.3031H227.109V42.7365H229.298V40.4702H229.946Z" fill="#9CA3AF"/>
<path d="M247.368 40.4702V42.7365H249.556V43.3031H247.368V45.5694H246.72V43.3031H244.531V42.7365H246.72V40.4702H247.368Z" fill="#9CA3AF"/>
<path d="M264.876 40.4702V42.7365H267.064V43.3031H264.876V45.5694H264.227V43.3031H262.039V42.7365H264.227V40.4702H264.876Z" fill="#9CA3AF"/>
<path d="M282.306 40.4702V42.7365H284.494V43.3031H282.306V45.5694H281.657V43.3031H279.469V42.7365H281.657V40.4702H282.306Z" fill="#9CA3AF"/>
<path d="M299.813 40.4702V42.7365H302.002V43.3031H299.813V45.5694H299.165V43.3031H296.977V42.7365H299.165V40.4702H299.813Z" fill="#9CA3AF"/>
<path d="M2.83682 60.7051V62.9714H5.02523V63.538H2.83682V65.8043H2.18841V63.538H0V62.9714H2.18841V60.7051H2.83682Z" fill="#9CA3AF"/>
<path d="M20.2665 60.7051V62.9714H22.4549V63.538H20.2665V65.8043H19.6181V63.538H17.4297V62.9714H19.6181V60.7051H20.2665Z" fill="#9CA3AF"/>
<path d="M37.7665 60.7051V62.9714H39.9549V63.538H37.7665V65.8043H37.1181V63.538H34.9297V62.9714H37.1181V60.7051H37.7665Z" fill="#9CA3AF"/>
<path d="M55.1962 60.7051V62.9714H57.3846V63.538H55.1962V65.8043H54.5478V63.538H52.3594V62.9714H54.5478V60.7051H55.1962Z" fill="#9CA3AF"/>
<path d="M72.704 60.7051V62.9714H74.8924V63.538H72.704V65.8043H72.0556V63.538H69.8672V62.9714H72.0556V60.7051H72.704Z" fill="#9CA3AF"/>
<path d="M90.1337 60.7051V62.9714H92.3221V63.538H90.1337V65.8043H89.4853V63.538H87.2969V62.9714H89.4853V60.7051H90.1337Z" fill="#9CA3AF"/>
<path d="M107.634 60.7051V62.9714H109.822V63.538H107.634V65.8043H106.985V63.538H104.797V62.9714H106.985V60.7051H107.634Z" fill="#9CA3AF"/>
<path d="M125.063 60.7051V62.9714H127.252V63.538H125.063V65.8043H124.415V63.538H122.227V62.9714H124.415V60.7051H125.063Z" fill="#9CA3AF"/>
<path d="M142.571 60.7051V62.9714H144.76V63.538H142.571V65.8043H141.923V63.538H139.734V62.9714H141.923V60.7051H142.571Z" fill="#9CA3AF"/>
<path d="M159.998 60.7051V62.9714H162.186V63.538H159.998V65.8043H159.35V63.538H157.242V62.9714H159.431V60.7051H159.998Z" fill="#9CA3AF"/>
<path d="M177.501 60.7051V62.9714H179.689V63.538H177.501V65.8043H176.852V63.538H174.664V62.9714H176.852V60.7051H177.501Z" fill="#9CA3AF"/>
<path d="M194.931 60.7051V62.9714H197.119V63.538H194.931V65.8043H194.282V63.538H192.094V62.9714H194.282V60.7051H194.931Z" fill="#9CA3AF"/>
<path d="M212.438 60.7051V62.9714H214.627V63.538H212.438V65.8043H211.79V63.538H209.602V62.9714H211.79V60.7051H212.438Z" fill="#9CA3AF"/>
<path d="M229.946 60.7051V62.9714H232.135V63.538H229.946V65.8043H229.298V63.538H227.109V62.9714H229.298V60.7051H229.946Z" fill="#9CA3AF"/>
<path d="M247.368 60.7051V62.9714H249.556V63.538H247.368V65.8043H246.72V63.538H244.531V62.9714H246.72V60.7051H247.368Z" fill="#9CA3AF"/>
<path d="M264.876 60.7051V62.9714H267.064V63.538H264.876V65.8043H264.227V63.538H262.039V62.9714H264.227V60.7051H264.876Z" fill="#9CA3AF"/>
<path d="M282.306 60.7051V62.9714H284.494V63.538H282.306V65.8043H281.657V63.538H279.469V62.9714H281.657V60.7051H282.306Z" fill="#9CA3AF"/>
<path d="M299.813 60.7051V62.9714H302.002V63.538H299.813V65.8043H299.165V63.538H296.977V62.9714H299.165V60.7051H299.813Z" fill="#9CA3AF"/>
<path d="M2.83682 80.9399V83.2063H5.02523V83.7728H2.83682V86.0392H2.18841V83.7728H0V83.2063H2.18841V80.9399H2.83682Z" fill="#9CA3AF"/>
<path d="M20.2665 80.9399V83.2063H22.4549V83.7728H20.2665V86.0392H19.6181V83.7728H17.4297V83.2063H19.6181V80.9399H20.2665Z" fill="#9CA3AF"/>
<path d="M37.7665 80.9399V83.2063H39.9549V83.7728H37.7665V86.0392H37.1181V83.7728H34.9297V83.2063H37.1181V80.9399H37.7665Z" fill="#9CA3AF"/>
<path d="M55.1962 80.9399V83.2063H57.3846V83.7728H55.1962V86.0392H54.5478V83.7728H52.3594V83.2063H54.5478V80.9399H55.1962Z" fill="#9CA3AF"/>
<path d="M72.704 80.9399V83.2063H74.8924V83.7728H72.704V86.0392H72.0556V83.7728H69.8672V83.2063H72.0556V80.9399H72.704Z" fill="#9CA3AF"/>
<path d="M90.1337 80.9399V83.2063H92.3221V83.7728H90.1337V86.0392H89.4853V83.7728H87.2969V83.2063H89.4853V80.9399H90.1337Z" fill="#9CA3AF"/>
<path d="M107.634 80.9399V83.2063H109.822V83.7728H107.634V86.0392H106.985V83.7728H104.797V83.2063H106.985V80.9399H107.634Z" fill="#9CA3AF"/>
<path d="M125.063 80.9399V83.2063H127.252V83.7728H125.063V86.0392H124.415V83.7728H122.227V83.2063H124.415V80.9399H125.063Z" fill="#9CA3AF"/>
<path d="M142.571 80.9399V83.2063H144.76V83.7728H142.571V86.0392H141.923V83.7728H139.734V83.2063H141.923V80.9399H142.571Z" fill="#9CA3AF"/>
<path d="M159.998 80.9399V83.2063H162.186V83.7728H159.998V86.0392H159.35V83.7728H157.242V83.2063H159.431V80.9399H159.998Z" fill="#9CA3AF"/>
<path d="M177.501 80.9399V83.2063H179.689V83.7728H177.501V86.0392H176.852V83.7728H174.664V83.2063H176.852V80.9399H177.501Z" fill="#9CA3AF"/>
<path d="M194.931 80.9399V83.2063H197.119V83.7728H194.931V86.0392H194.282V83.7728H192.094V83.2063H194.282V80.9399H194.931Z" fill="#9CA3AF"/>
<path d="M212.438 80.9399V83.2063H214.627V83.7728H212.438V86.0392H211.79V83.7728H209.602V83.2063H211.79V80.9399H212.438Z" fill="#9CA3AF"/>
<path d="M229.946 80.9399V83.2063H232.135V83.7728H229.946V86.0392H229.298V83.7728H227.109V83.2063H229.298V80.9399H229.946Z" fill="#9CA3AF"/>
<path d="M247.368 80.9399V83.2063H249.556V83.7728H247.368V86.0392H246.72V83.7728H244.531V83.2063H246.72V80.9399H247.368Z" fill="#9CA3AF"/>
<path d="M264.876 80.9399V83.2063H267.064V83.7728H264.876V86.0392H264.227V83.7728H262.039V83.2063H264.227V80.9399H264.876Z" fill="#9CA3AF"/>
<path d="M282.306 80.9399V83.2063H284.494V83.7728H282.306V86.0392H281.657V83.7728H279.469V83.2063H281.657V80.9399H282.306Z" fill="#9CA3AF"/>
<path d="M299.813 80.9399V83.2063H302.002V83.7728H299.813V86.0392H299.165V83.7728H296.977V83.2063H299.165V80.9399H299.813Z" fill="#9CA3AF"/>
<path d="M2.83682 101.175V103.441H5.02523V104.008H2.83682V106.274H2.18841V104.008H0V103.441H2.18841V101.175H2.83682Z" fill="#9CA3AF"/>
<path d="M20.2665 101.175V103.441H22.4549V104.008H20.2665V106.274H19.6181V104.008H17.4297V103.441H19.6181V101.175H20.2665Z" fill="#9CA3AF"/>
<path d="M37.7665 101.175V103.441H39.9549V104.008H37.7665V106.274H37.1181V104.008H34.9297V103.441H37.1181V101.175H37.7665Z" fill="#9CA3AF"/>
<path d="M55.1962 101.175V103.441H57.3846V104.008H55.1962V106.274H54.5478V104.008H52.3594V103.441H54.5478V101.175H55.1962Z" fill="#9CA3AF"/>
<path d="M72.704 101.175V103.441H74.8924V104.008H72.704V106.274H72.0556V104.008H69.8672V103.441H72.0556V101.175H72.704Z" fill="#9CA3AF"/>
<path d="M90.1337 101.175V103.441H92.3221V104.008H90.1337V106.274H89.4853V104.008H87.2969V103.441H89.4853V101.175H90.1337Z" fill="#9CA3AF"/>
<path d="M107.634 101.175V103.441H109.822V104.008H107.634V106.274H106.985V104.008H104.797V103.441H106.985V101.175H107.634Z" fill="#9CA3AF"/>
<path d="M125.063 101.175V103.441H127.252V104.008H125.063V106.274H124.415V104.008H122.227V103.441H124.415V101.175H125.063Z" fill="#9CA3AF"/>
<path d="M142.571 101.175V103.441H144.76V104.008H142.571V106.274H141.923V104.008H139.734V103.441H141.923V101.175H142.571Z" fill="#9CA3AF"/>
<path d="M159.998 101.175V103.441H162.186V104.008H159.998V106.274H159.35V104.008H157.242V103.441H159.431V101.175H159.998Z" fill="#9CA3AF"/>
<path d="M177.501 101.175V103.441H179.689V104.008H177.501V106.274H176.852V104.008H174.664V103.441H176.852V101.175H177.501Z" fill="#9CA3AF"/>
<path d="M194.931 101.175V103.441H197.119V104.008H194.931V106.274H194.282V104.008H192.094V103.441H194.282V101.175H194.931Z" fill="#9CA3AF"/>
<path d="M212.438 101.175V103.441H214.627V104.008H212.438V106.274H211.79V104.008H209.602V103.441H211.79V101.175H212.438Z" fill="#9CA3AF"/>
<path d="M229.946 101.175V103.441H232.135V104.008H229.946V106.274H229.298V104.008H227.109V103.441H229.298V101.175H229.946Z" fill="#9CA3AF"/>
<path d="M247.368 101.175V103.441H249.556V104.008H247.368V106.274H246.72V104.008H244.531V103.441H246.72V101.175H247.368Z" fill="#9CA3AF"/>
<path d="M264.876 101.175V103.441H267.064V104.008H264.876V106.274H264.227V104.008H262.039V103.441H264.227V101.175H264.876Z" fill="#9CA3AF"/>
<path d="M282.306 101.175V103.441H284.494V104.008H282.306V106.274H281.657V104.008H279.469V103.441H281.657V101.175H282.306Z" fill="#9CA3AF"/>
<path d="M299.813 101.175V103.441H302.002V104.008H299.813V106.274H299.165V104.008H296.977V103.441H299.165V101.175H299.813Z" fill="#9CA3AF"/>
<path d="M2.83682 121.41V123.676H5.02523V124.243H2.83682V126.509H2.18841V124.243H0V123.676H2.18841V121.41H2.83682Z" fill="#9CA3AF"/>
<path d="M20.2665 121.41V123.676H22.4549V124.243H20.2665V126.509H19.6181V124.243H17.4297V123.676H19.6181V121.41H20.2665Z" fill="#9CA3AF"/>
<path d="M37.7665 121.41V123.676H39.9549V124.243H37.7665V126.509H37.1181V124.243H34.9297V123.676H37.1181V121.41H37.7665Z" fill="#9CA3AF"/>
<path d="M55.1962 121.41V123.676H57.3846V124.243H55.1962V126.509H54.5478V124.243H52.3594V123.676H54.5478V121.41H55.1962Z" fill="#9CA3AF"/>
<path d="M72.704 121.41V123.676H74.8924V124.243H72.704V126.509H72.0556V124.243H69.8672V123.676H72.0556V121.41H72.704Z" fill="#9CA3AF"/>
<path d="M90.1337 121.41V123.676H92.3221V124.243H90.1337V126.509H89.4853V124.243H87.2969V123.676H89.4853V121.41H90.1337Z" fill="#9CA3AF"/>
<path d="M107.634 121.41V123.676H109.822V124.243H107.634V126.509H106.985V124.243H104.797V123.676H106.985V121.41H107.634Z" fill="#9CA3AF"/>
<path d="M125.063 121.41V123.676H127.252V124.243H125.063V126.509H124.415V124.243H122.227V123.676H124.415V121.41H125.063Z" fill="#9CA3AF"/>
<path d="M142.571 121.41V123.676H144.76V124.243H142.571V126.509H141.923V124.243H139.734V123.676H141.923V121.41H142.571Z" fill="#9CA3AF"/>
<path d="M159.998 121.41V123.676H162.186V124.243H159.998V126.509H159.35V124.243H157.242V123.676H159.431V121.41H159.998Z" fill="#9CA3AF"/>
<path d="M177.501 121.41V123.676H179.689V124.243H177.501V126.509H176.852V124.243H174.664V123.676H176.852V121.41H177.501Z" fill="#9CA3AF"/>
<path d="M194.931 121.41V123.676H197.119V124.243H194.931V126.509H194.282V124.243H192.094V123.676H194.282V121.41H194.931Z" fill="#9CA3AF"/>
<path d="M212.438 121.41V123.676H214.627V124.243H212.438V126.509H211.79V124.243H209.602V123.676H211.79V121.41H212.438Z" fill="#9CA3AF"/>
<path d="M229.946 121.41V123.676H232.135V124.243H229.946V126.509H229.298V124.243H227.109V123.676H229.298V121.41H229.946Z" fill="#9CA3AF"/>
<path d="M247.368 121.41V123.676H249.556V124.243H247.368V126.509H246.72V124.243H244.531V123.676H246.72V121.41H247.368Z" fill="#9CA3AF"/>
<path d="M264.876 121.41V123.676H267.064V124.243H264.876V126.509H264.227V124.243H262.039V123.676H264.227V121.41H264.876Z" fill="#9CA3AF"/>
<path d="M282.306 121.41V123.676H284.494V124.243H282.306V126.509H281.657V124.243H279.469V123.676H281.657V121.41H282.306Z" fill="#9CA3AF"/>
<path d="M299.813 121.41V123.676H302.002V124.243H299.813V126.509H299.165V124.243H296.977V123.676H299.165V121.41H299.813Z" fill="#9CA3AF"/>
<path d="M2.83682 141.645V143.911H5.02523V144.478H2.83682V146.744H2.18841V144.478H0V143.911H2.18841V141.645H2.83682Z" fill="#9CA3AF"/>
<path d="M20.2665 141.645V143.911H22.4549V144.478H20.2665V146.744H19.6181V144.478H17.4297V143.911H19.6181V141.645H20.2665Z" fill="#9CA3AF"/>
<path d="M37.7665 141.645V143.911H39.9549V144.478H37.7665V146.744H37.1181V144.478H34.9297V143.911H37.1181V141.645H37.7665Z" fill="#9CA3AF"/>
<path d="M55.1962 141.645V143.911H57.3846V144.478H55.1962V146.744H54.5478V144.478H52.3594V143.911H54.5478V141.645H55.1962Z" fill="#9CA3AF"/>
<path d="M72.704 141.645V143.911H74.8924V144.478H72.704V146.744H72.0556V144.478H69.8672V143.911H72.0556V141.645H72.704Z" fill="#9CA3AF"/>
<path d="M90.1337 141.645V143.911H92.3221V144.478H90.1337V146.744H89.4853V144.478H87.2969V143.911H89.4853V141.645H90.1337Z" fill="#9CA3AF"/>
<path d="M107.634 141.645V143.911H109.822V144.478H107.634V146.744H106.985V144.478H104.797V143.911H106.985V141.645H107.634Z" fill="#9CA3AF"/>
<path d="M125.063 141.645V143.911H127.252V144.478H125.063V146.744H124.415V144.478H122.227V143.911H124.415V141.645H125.063Z" fill="#9CA3AF"/>
<path d="M142.571 141.645V143.911H144.76V144.478H142.571V146.744H141.923V144.478H139.734V143.911H141.923V141.645H142.571Z" fill="#9CA3AF"/>
<path d="M159.998 141.645V143.911H162.186V144.478H159.998V146.744H159.35V144.478H157.242V143.911H159.431V141.645H159.998Z" fill="#9CA3AF"/>
<path d="M177.501 141.645V143.911H179.689V144.478H177.501V146.744H176.852V144.478H174.664V143.911H176.852V141.645H177.501Z" fill="#9CA3AF"/>
<path d="M194.931 141.645V143.911H197.119V144.478H194.931V146.744H194.282V144.478H192.094V143.911H194.282V141.645H194.931Z" fill="#9CA3AF"/>
<path d="M212.438 141.645V143.911H214.627V144.478H212.438V146.744H211.79V144.478H209.602V143.911H211.79V141.645H212.438Z" fill="#9CA3AF"/>
<path d="M229.946 141.645V143.911H232.135V144.478H229.946V146.744H229.298V144.478H227.109V143.911H229.298V141.645H229.946Z" fill="#9CA3AF"/>
<path d="M247.368 141.645V143.911H249.556V144.478H247.368V146.744H246.72V144.478H244.531V143.911H246.72V141.645H247.368Z" fill="#9CA3AF"/>
<path d="M264.876 141.645V143.911H267.064V144.478H264.876V146.744H264.227V144.478H262.039V143.911H264.227V141.645H264.876Z" fill="#9CA3AF"/>
<path d="M282.306 141.645V143.911H284.494V144.478H282.306V146.744H281.657V144.478H279.469V143.911H281.657V141.645H282.306Z" fill="#9CA3AF"/>
<path d="M299.813 141.645V143.911H302.002V144.478H299.813V146.744H299.165V144.478H296.977V143.911H299.165V141.645H299.813Z" fill="#9CA3AF"/>
<path d="M2.83682 161.88V164.146H5.02523V164.713H2.83682V166.979H2.18841V164.713H0V164.146H2.18841V161.88H2.83682Z" fill="#9CA3AF"/>
<path d="M20.2665 161.88V164.146H22.4549V164.713H20.2665V166.979H19.6181V164.713H17.4297V164.146H19.6181V161.88H20.2665Z" fill="#9CA3AF"/>
<path d="M37.7665 161.88V164.146H39.9549V164.713H37.7665V166.979H37.1181V164.713H34.9297V164.146H37.1181V161.88H37.7665Z" fill="#9CA3AF"/>
<path d="M55.1962 161.88V164.146H57.3846V164.713H55.1962V166.979H54.5478V164.713H52.3594V164.146H54.5478V161.88H55.1962Z" fill="#9CA3AF"/>
<path d="M72.704 161.88V164.146H74.8924V164.713H72.704V166.979H72.0556V164.713H69.8672V164.146H72.0556V161.88H72.704Z" fill="#9CA3AF"/>
<path d="M90.1337 161.88V164.146H92.3221V164.713H90.1337V166.979H89.4853V164.713H87.2969V164.146H89.4853V161.88H90.1337Z" fill="#9CA3AF"/>
<path d="M107.634 161.88V164.146H109.822V164.713H107.634V166.979H106.985V164.713H104.797V164.146H106.985V161.88H107.634Z" fill="#9CA3AF"/>
<path d="M125.063 161.88V164.146H127.252V164.713H125.063V166.979H124.415V164.713H122.227V164.146H124.415V161.88H125.063Z" fill="#9CA3AF"/>
<path d="M142.571 161.88V164.146H144.76V164.713H142.571V166.979H141.923V164.713H139.734V164.146H141.923V161.88H142.571Z" fill="#9CA3AF"/>
<path d="M159.998 161.88V164.146H162.186V164.713H159.998V166.979H159.35V164.713H157.242V164.146H159.431V161.88H159.998Z" fill="#9CA3AF"/>
<path d="M177.501 161.88V164.146H179.689V164.713H177.501V166.979H176.852V164.713H174.664V164.146H176.852V161.88H177.501Z" fill="#9CA3AF"/>
<path d="M194.931 161.88V164.146H197.119V164.713H194.931V166.979H194.282V164.713H192.094V164.146H194.282V161.88H194.931Z" fill="#9CA3AF"/>
<path d="M212.438 161.88V164.146H214.627V164.713H212.438V166.979H211.79V164.713H209.602V164.146H211.79V161.88H212.438Z" fill="#9CA3AF"/>
<path d="M229.946 161.88V164.146H232.135V164.713H229.946V166.979H229.298V164.713H227.109V164.146H229.298V161.88H229.946Z" fill="#9CA3AF"/>
<path d="M247.368 161.88V164.146H249.556V164.713H247.368V166.979H246.72V164.713H244.531V164.146H246.72V161.88H247.368Z" fill="#9CA3AF"/>
<path d="M264.876 161.88V164.146H267.064V164.713H264.876V166.979H264.227V164.713H262.039V164.146H264.227V161.88H264.876Z" fill="#9CA3AF"/>
<path d="M282.306 161.88V164.146H284.494V164.713H282.306V166.979H281.657V164.713H279.469V164.146H281.657V161.88H282.306Z" fill="#9CA3AF"/>
<path d="M299.813 161.88V164.146H302.002V164.713H299.813V166.979H299.165V164.713H296.977V164.146H299.165V161.88H299.813Z" fill="#9CA3AF"/>
<path d="M2.83682 182.115V184.382H5.02523V184.948H2.83682V187.214H2.18841V184.948H0V184.382H2.18841V182.115H2.83682Z" fill="#9CA3AF"/>
<path d="M20.2665 182.115V184.382H22.4549V184.948H20.2665V187.214H19.6181V184.948H17.4297V184.382H19.6181V182.115H20.2665Z" fill="#9CA3AF"/>
<path d="M37.7665 182.115V184.382H39.9549V184.948H37.7665V187.214H37.1181V184.948H34.9297V184.382H37.1181V182.115H37.7665Z" fill="#9CA3AF"/>
<path d="M55.1962 182.115V184.382H57.3846V184.948H55.1962V187.214H54.5478V184.948H52.3594V184.382H54.5478V182.115H55.1962Z" fill="#9CA3AF"/>
<path d="M72.704 182.115V184.382H74.8924V184.948H72.704V187.214H72.0556V184.948H69.8672V184.382H72.0556V182.115H72.704Z" fill="#9CA3AF"/>
<path d="M90.1337 182.115V184.382H92.3221V184.948H90.1337V187.214H89.4853V184.948H87.2969V184.382H89.4853V182.115H90.1337Z" fill="#9CA3AF"/>
<path d="M107.634 182.115V184.382H109.822V184.948H107.634V187.214H106.985V184.948H104.797V184.382H106.985V182.115H107.634Z" fill="#9CA3AF"/>
<path d="M125.063 182.115V184.382H127.252V184.948H125.063V187.214H124.415V184.948H122.227V184.382H124.415V182.115H125.063Z" fill="#9CA3AF"/>
<path d="M142.571 182.115V184.382H144.76V184.948H142.571V187.214H141.923V184.948H139.734V184.382H141.923V182.115H142.571Z" fill="#9CA3AF"/>
<path d="M159.998 182.115V184.382H162.186V184.948H159.998V187.214H159.35V184.948H157.242V184.382H159.431V182.115H159.998Z" fill="#9CA3AF"/>
<path d="M177.501 182.115V184.382H179.689V184.948H177.501V187.214H176.852V184.948H174.664V184.382H176.852V182.115H177.501Z" fill="#9CA3AF"/>
<path d="M194.931 182.115V184.382H197.119V184.948H194.931V187.214H194.282V184.948H192.094V184.382H194.282V182.115H194.931Z" fill="#9CA3AF"/>
<path d="M212.438 182.115V184.382H214.627V184.948H212.438V187.214H211.79V184.948H209.602V184.382H211.79V182.115H212.438Z" fill="#9CA3AF"/>
<path d="M229.946 182.115V184.382H232.135V184.948H229.946V187.214H229.298V184.948H227.109V184.382H229.298V182.115H229.946Z" fill="#9CA3AF"/>
<path d="M247.368 182.115V184.382H249.556V184.948H247.368V187.214H246.72V184.948H244.531V184.382H246.72V182.115H247.368Z" fill="#9CA3AF"/>
<path d="M264.876 182.115V184.382H267.064V184.948H264.876V187.214H264.227V184.948H262.039V184.382H264.227V182.115H264.876Z" fill="#9CA3AF"/>
<path d="M282.306 182.115V184.382H284.494V184.948H282.306V187.214H281.657V184.948H279.469V184.382H281.657V182.115H282.306Z" fill="#9CA3AF"/>
<path d="M299.813 182.115V184.382H302.002V184.948H299.813V187.214H299.165V184.948H296.977V184.382H299.165V182.115H299.813Z" fill="#9CA3AF"/>
<path d="M2.83682 202.35V204.616H5.02523V205.183H2.83682V207.449H2.18841V205.183H0V204.616H2.18841V202.35H2.83682Z" fill="#9CA3AF"/>
<path d="M20.2665 202.35V204.616H22.4549V205.183H20.2665V207.449H19.6181V205.183H17.4297V204.616H19.6181V202.35H20.2665Z" fill="#9CA3AF"/>
<path d="M37.7665 202.35V204.616H39.9549V205.183H37.7665V207.449H37.1181V205.183H34.9297V204.616H37.1181V202.35H37.7665Z" fill="#9CA3AF"/>
<path d="M55.1962 202.35V204.616H57.3846V205.183H55.1962V207.449H54.5478V205.183H52.3594V204.616H54.5478V202.35H55.1962Z" fill="#9CA3AF"/>
<path d="M72.704 202.35V204.616H74.8924V205.183H72.704V207.449H72.0556V205.183H69.8672V204.616H72.0556V202.35H72.704Z" fill="#9CA3AF"/>
<path d="M90.1337 202.35V204.616H92.3221V205.183H90.1337V207.449H89.4853V205.183H87.2969V204.616H89.4853V202.35H90.1337Z" fill="#9CA3AF"/>
<path d="M107.634 202.35V204.616H109.822V205.183H107.634V207.449H106.985V205.183H104.797V204.616H106.985V202.35H107.634Z" fill="#9CA3AF"/>
<path d="M125.063 202.35V204.616H127.252V205.183H125.063V207.449H124.415V205.183H122.227V204.616H124.415V202.35H125.063Z" fill="#9CA3AF"/>
<path d="M142.571 202.35V204.616H144.76V205.183H142.571V207.449H141.923V205.183H139.734V204.616H141.923V202.35H142.571Z" fill="#9CA3AF"/>
<path d="M159.998 202.35V204.616H162.186V205.183H159.998V207.449H159.35V205.183H157.242V204.616H159.431V202.35H159.998Z" fill="#9CA3AF"/>
<path d="M177.501 202.35V204.616H179.689V205.183H177.501V207.449H176.852V205.183H174.664V204.616H176.852V202.35H177.501Z" fill="#9CA3AF"/>
<path d="M194.931 202.35V204.616H197.119V205.183H194.931V207.449H194.282V205.183H192.094V204.616H194.282V202.35H194.931Z" fill="#9CA3AF"/>
<path d="M212.438 202.35V204.616H214.627V205.183H212.438V207.449H211.79V205.183H209.602V204.616H211.79V202.35H212.438Z" fill="#9CA3AF"/>
<path d="M229.946 202.35V204.616H232.135V205.183H229.946V207.449H229.298V205.183H227.109V204.616H229.298V202.35H229.946Z" fill="#9CA3AF"/>
<path d="M247.368 202.35V204.616H249.556V205.183H247.368V207.449H246.72V205.183H244.531V204.616H246.72V202.35H247.368Z" fill="#9CA3AF"/>
<path d="M264.876 202.35V204.616H267.064V205.183H264.876V207.449H264.227V205.183H262.039V204.616H264.227V202.35H264.876Z" fill="#9CA3AF"/>
<path d="M282.306 202.35V204.616H284.494V205.183H282.306V207.449H281.657V205.183H279.469V204.616H281.657V202.35H282.306Z" fill="#9CA3AF"/>
<path d="M299.813 202.35V204.616H302.002V205.183H299.813V207.449H299.165V205.183H296.977V204.616H299.165V202.35H299.813Z" fill="#9CA3AF"/>
<path d="M2.83682 222.585V224.851H5.02523V225.418H2.83682V227.684H2.18841V225.418H0V224.851H2.18841V222.585H2.83682Z" fill="#9CA3AF"/>
<path d="M20.2665 222.585V224.851H22.4549V225.418H20.2665V227.684H19.6181V225.418H17.4297V224.851H19.6181V222.585H20.2665Z" fill="#9CA3AF"/>
<path d="M37.7665 222.585V224.851H39.9549V225.418H37.7665V227.684H37.1181V225.418H34.9297V224.851H37.1181V222.585H37.7665Z" fill="#9CA3AF"/>
<path d="M55.1962 222.585V224.851H57.3846V225.418H55.1962V227.684H54.5478V225.418H52.3594V224.851H54.5478V222.585H55.1962Z" fill="#9CA3AF"/>
<path d="M72.704 222.585V224.851H74.8924V225.418H72.704V227.684H72.0556V225.418H69.8672V224.851H72.0556V222.585H72.704Z" fill="#9CA3AF"/>
<path d="M90.1337 222.585V224.851H92.3221V225.418H90.1337V227.684H89.4853V225.418H87.2969V224.851H89.4853V222.585H90.1337Z" fill="#9CA3AF"/>
<path d="M107.634 222.585V224.851H109.822V225.418H107.634V227.684H106.985V225.418H104.797V224.851H106.985V222.585H107.634Z" fill="#9CA3AF"/>
<path d="M125.063 222.585V224.851H127.252V225.418H125.063V227.684H124.415V225.418H122.227V224.851H124.415V222.585H125.063Z" fill="#9CA3AF"/>
<path d="M142.571 222.585V224.851H144.76V225.418H142.571V227.684H141.923V225.418H139.734V224.851H141.923V222.585H142.571Z" fill="#9CA3AF"/>
<path d="M159.998 222.585V224.851H162.186V225.418H159.998V227.684H159.35V225.418H157.242V224.851H159.431V222.585H159.998Z" fill="#9CA3AF"/>
<path d="M177.501 222.585V224.851H179.689V225.418H177.501V227.684H176.852V225.418H174.664V224.851H176.852V222.585H177.501Z" fill="#9CA3AF"/>
<path d="M194.931 222.585V224.851H197.119V225.418H194.931V227.684H194.282V225.418H192.094V224.851H194.282V222.585H194.931Z" fill="#9CA3AF"/>
<path d="M212.438 222.585V224.851H214.627V225.418H212.438V227.684H211.79V225.418H209.602V224.851H211.79V222.585H212.438Z" fill="#9CA3AF"/>
<path d="M229.946 222.585V224.851H232.135V225.418H229.946V227.684H229.298V225.418H227.109V224.851H229.298V222.585H229.946Z" fill="#9CA3AF"/>
<path d="M247.368 222.585V224.851H249.556V225.418H247.368V227.684H246.72V225.418H244.531V224.851H246.72V222.585H247.368Z" fill="#9CA3AF"/>
<path d="M264.876 222.585V224.851H267.064V225.418H264.876V227.684H264.227V225.418H262.039V224.851H264.227V222.585H264.876Z" fill="#9CA3AF"/>
<path d="M282.306 222.585V224.851H284.494V225.418H282.306V227.684H281.657V225.418H279.469V224.851H281.657V222.585H282.306Z" fill="#9CA3AF"/>
<path d="M299.813 222.585V224.851H302.002V225.418H299.813V227.684H299.165V225.418H296.977V224.851H299.165V222.585H299.813Z" fill="#9CA3AF"/>
<path d="M2.83682 242.82V245.087H5.02523V245.653H2.83682V247.92H2.18841V245.653H0V245.087H2.18841V242.82H2.83682Z" fill="#9CA3AF"/>
<path d="M20.2665 242.82V245.087H22.4549V245.653H20.2665V247.92H19.6181V245.653H17.4297V245.087H19.6181V242.82H20.2665Z" fill="#9CA3AF"/>
<path d="M37.7665 242.82V245.087H39.9549V245.653H37.7665V247.92H37.1181V245.653H34.9297V245.087H37.1181V242.82H37.7665Z" fill="#9CA3AF"/>
<path d="M55.1962 242.82V245.087H57.3846V245.653H55.1962V247.92H54.5478V245.653H52.3594V245.087H54.5478V242.82H55.1962Z" fill="#9CA3AF"/>
<path d="M72.704 242.82V245.087H74.8924V245.653H72.704V247.92H72.0556V245.653H69.8672V245.087H72.0556V242.82H72.704Z" fill="#9CA3AF"/>
<path d="M90.1337 242.82V245.087H92.3221V245.653H90.1337V247.92H89.4853V245.653H87.2969V245.087H89.4853V242.82H90.1337Z" fill="#9CA3AF"/>
<path d="M107.634 242.82V245.087H109.822V245.653H107.634V247.92H106.985V245.653H104.797V245.087H106.985V242.82H107.634Z" fill="#9CA3AF"/>
<path d="M125.063 242.82V245.087H127.252V245.653H125.063V247.92H124.415V245.653H122.227V245.087H124.415V242.82H125.063Z" fill="#9CA3AF"/>
<path d="M142.571 242.82V245.087H144.76V245.653H142.571V247.92H141.923V245.653H139.734V245.087H141.923V242.82H142.571Z" fill="#9CA3AF"/>
<path d="M159.998 242.82V245.087H162.186V245.653H159.998V247.92H159.35V245.653H157.242V245.087H159.431V242.82H159.998Z" fill="#9CA3AF"/>
<path d="M177.501 242.82V245.087H179.689V245.653H177.501V247.92H176.852V245.653H174.664V245.087H176.852V242.82H177.501Z" fill="#9CA3AF"/>
<path d="M194.931 242.82V245.087H197.119V245.653H194.931V247.92H194.282V245.653H192.094V245.087H194.282V242.82H194.931Z" fill="#9CA3AF"/>
<path d="M212.438 242.82V245.087H214.627V245.653H212.438V247.92H211.79V245.653H209.602V245.087H211.79V242.82H212.438Z" fill="#9CA3AF"/>
<path d="M229.946 242.82V245.087H232.135V245.653H229.946V247.92H229.298V245.653H227.109V245.087H229.298V242.82H229.946Z" fill="#9CA3AF"/>
<path d="M247.368 242.82V245.087H249.556V245.653H247.368V247.92H246.72V245.653H244.531V245.087H246.72V242.82H247.368Z" fill="#9CA3AF"/>
<path d="M264.876 242.82V245.087H267.064V245.653H264.876V247.92H264.227V245.653H262.039V245.087H264.227V242.82H264.876Z" fill="#9CA3AF"/>
<path d="M282.306 242.82V245.087H284.494V245.653H282.306V247.92H281.657V245.653H279.469V245.087H281.657V242.82H282.306Z" fill="#9CA3AF"/>
<path d="M299.813 242.82V245.087H302.002V245.653H299.813V247.92H299.165V245.653H296.977V245.087H299.165V242.82H299.813Z" fill="#9CA3AF"/>
</svg>
