<?xml version="1.0" encoding="UTF-8" standalone="no"?>
<!DOCTYPE svg PUBLIC "-//W3C//DTD SVG 1.1//EN" "http://www.w3.org/Graphics/SVG/1.1/DTD/svg11.dtd">
<svg width="100%" height="100%" viewBox="0 0 1501 406" version="1.1" xmlns="http://www.w3.org/2000/svg" xmlns:xlink="http://www.w3.org/1999/xlink" xml:space="preserve" xmlns:serif="http://www.serif.com/" style="fill-rule:evenodd;clip-rule:evenodd;stroke-linejoin:round;stroke-miterlimit:2;">
    <g transform="matrix(1,0,0,1,-449.617,-1201.24)">
        <g transform="matrix(4.16667,0,0,4.16667,0,0)">
            <path d="M177.281,329.987L147.014,329.987C146.233,329.987 145.6,330.621 145.6,331.402L145.6,346.2C145.6,346.981 146.233,347.617 147.014,347.617L158.821,347.617L158.821,366.002C158.821,366.002 156.17,366.906 148.84,366.906C140.193,366.906 128.113,363.746 128.113,337.183C128.113,310.613 140.692,307.118 152.501,307.118C162.724,307.118 167.127,308.917 169.93,309.785C170.811,310.055 171.625,309.178 171.625,308.396L175.001,294.099C175.001,293.732 174.877,293.293 174.461,292.994C173.323,292.182 166.38,288.297 148.84,288.297C128.634,288.297 107.908,296.893 107.908,338.219C107.908,379.545 131.638,385.703 151.635,385.703C168.192,385.703 178.236,378.628 178.236,378.628C178.65,378.399 178.695,377.82 178.695,377.556L178.695,331.402C178.695,330.621 178.062,329.987 177.281,329.987Z" style="fill:white;fill-rule:nonzero;"/>
        </g>
        <g transform="matrix(4.16667,0,0,4.16667,0,0)">
            <path d="M333.265,293.249C333.265,292.461 332.641,291.826 331.859,291.826L314.817,291.826C314.039,291.826 313.406,292.461 313.406,293.249C313.406,293.252 313.411,326.183 313.411,326.183L286.846,326.183L286.846,293.249C286.846,292.461 286.22,291.826 285.44,291.826L268.399,291.826C267.624,291.826 266.991,292.461 266.991,293.249L266.991,382.426C266.991,383.213 267.624,383.852 268.399,383.852L285.44,383.852C286.22,383.852 286.846,383.213 286.846,382.426L286.846,344.281L313.411,344.281C313.411,344.281 313.364,382.423 313.364,382.426C313.364,383.213 313.996,383.852 314.776,383.852L331.858,383.852C332.639,383.852 333.263,383.213 333.265,382.426L333.265,293.249Z" style="fill:white;fill-rule:nonzero;"/>
        </g>
        <g transform="matrix(4.16667,0,0,4.16667,0,0)">
            <path d="M209.44,304.95C209.44,298.814 204.521,293.855 198.451,293.855C192.387,293.855 187.463,298.814 187.463,304.95C187.463,311.081 192.387,316.054 198.451,316.054C204.521,316.054 209.44,311.081 209.44,304.95Z" style="fill:white;fill-rule:nonzero;"/>
        </g>
        <g transform="matrix(4.16667,0,0,4.16667,0,0)">
            <path d="M208.222,381.563L208.222,322.45C208.222,321.668 207.591,321.029 206.812,321.029L189.823,321.029C189.044,321.029 188.347,321.833 188.347,322.614L188.347,381.591C188.347,383.324 189.427,383.84 190.824,383.84L206.13,383.84C207.81,383.84 208.222,383.015 208.222,381.563Z" style="fill:white;fill-rule:nonzero;"/>
        </g>
        <g transform="matrix(4.16667,0,0,4.16667,0,0)">
            <path d="M398.032,321.163L381.121,321.163C380.346,321.163 379.714,321.803 379.714,322.59L379.714,366.315C379.714,366.315 375.417,369.459 369.319,369.459C363.222,369.459 361.604,366.692 361.604,360.722L361.604,322.59C361.604,321.803 360.974,321.163 360.197,321.163L343.033,321.163C342.259,321.163 341.624,321.803 341.624,322.59L341.624,363.608C341.624,381.344 351.508,385.683 365.105,385.683C376.261,385.683 385.255,379.519 385.255,379.519C385.255,379.519 385.683,382.768 385.877,383.152C386.07,383.536 386.575,383.925 387.121,383.925L398.04,383.876C398.814,383.876 399.449,383.236 399.449,382.452L399.443,322.59C399.443,321.803 398.812,321.163 398.032,321.163Z" style="fill:white;fill-rule:nonzero;"/>
        </g>
        <g transform="matrix(4.16667,0,0,4.16667,0,0)">
            <path d="M437.584,369.405C431.718,369.227 427.739,366.564 427.739,366.564L427.739,338.324C427.739,338.324 431.664,335.918 436.48,335.488C442.57,334.942 448.438,336.782 448.438,351.31C448.438,366.629 445.79,369.652 437.584,369.405ZM444.254,319.16C434.649,319.16 428.116,323.445 428.116,323.445L428.116,293.249C428.116,292.461 427.486,291.826 426.71,291.826L409.619,291.826C408.842,291.826 408.211,292.461 408.211,293.249L408.211,382.426C408.211,383.213 408.842,383.852 409.621,383.852L421.479,383.852C422.013,383.852 422.417,383.577 422.716,383.096C423.011,382.616 423.436,378.983 423.436,378.983C423.436,378.983 430.424,385.606 443.653,385.606C459.185,385.606 468.092,377.728 468.092,350.24C468.092,322.752 453.866,319.16 444.254,319.16Z" style="fill:white;fill-rule:nonzero;"/>
        </g>
        <g transform="matrix(4.16667,0,0,4.16667,0,0)">
            <path d="M257.202,321.021L244.418,321.021C244.418,321.021 244.399,304.137 244.399,304.133C244.399,303.493 244.069,303.174 243.33,303.174L225.91,303.174C225.232,303.174 224.869,303.472 224.869,304.123L224.869,321.575C224.869,321.575 216.139,323.683 215.548,323.852C214.961,324.023 214.528,324.565 214.528,325.212L214.528,336.179C214.528,336.968 215.158,337.604 215.937,337.604L224.869,337.604L224.869,363.988C224.869,383.585 238.615,385.51 247.89,385.51C252.129,385.51 257.199,384.148 258.036,383.84C258.542,383.653 258.836,383.129 258.836,382.56L258.851,370.496C258.851,369.71 258.186,369.072 257.437,369.072C256.691,369.072 254.787,369.376 252.825,369.376C246.545,369.376 244.418,366.456 244.418,362.677C244.418,358.9 244.417,337.604 244.417,337.604L257.202,337.604C257.98,337.604 258.612,336.968 258.612,336.179L258.612,322.442C258.612,321.655 257.98,321.021 257.202,321.021Z" style="fill:white;fill-rule:nonzero;"/>
        </g>
    </g>
</svg>
