<svg id="Logo" xmlns="http://www.w3.org/2000/svg" viewBox="0 0 691.59 382.06">
  <path id="UnityLogo" d="M37.33,231.76l111.43-111,45.54.52,22.64-39.78,151.6-40.65L409.47,192.7l-23.41,39.2,23.08,39.64L368.66,422.93,216.5,382.17l-22.14-39.31-45.53.11ZM346.57,347.07,378.91,231.9,346.41,117,280,231.87ZM114.39,213.24h133l66.3-115.1L197.93,127.81ZM313.7,365.91l-66.15-115H114.47l83.79,85.22Z" transform="translate(-37.33 -40.87)" style="fill: #fff"/>
  <g>
    <path d="M606.94,258.86l42.28,13.4q-9.72,35.37-32.33,52.53T559.5,342q-43,0-70.71-29.39t-27.7-80.37q0-53.91,27.85-83.75t73.22-29.83q39.62,0,64.38,23.42,14.73,13.85,22.09,39.78l-43.16,10.31q-3.84-16.8-16-26.52T560,155.88q-24,0-39,17.24T506,229q0,41,14.74,58.34t38.3,17.39A43.72,43.72,0,0,0,589,293.63Q601.48,282.58,606.94,258.86Z" transform="translate(-37.33 -40.87)" style="fill: #fff"/>
    <path d="M685.32,338.27v-216h43.6v216Z" transform="translate(-37.33 -40.87)" style="fill: #fff"/>
  </g>
</svg>
