<?xml version="1.0" encoding="UTF-8" standalone="no"?>
<!-- Created with Inkscape (http://www.inkscape.org/) -->

<svg
   version="1.1"
   id="svg1"
   width="2024"
   height="785"
   viewBox="0 0 2024 785"
   xmlns:inkscape="http://www.inkscape.org/namespaces/inkscape"
   xmlns:sodipodi="http://sodipodi.sourceforge.net/DTD/sodipodi-0.dtd"
   xmlns="http://www.w3.org/2000/svg"
   xmlns:svg="http://www.w3.org/2000/svg">
  <defs
     id="defs1" />
  <sodipodi:namedview
     id="namedview1"
     pagecolor="#ffffff"
     bordercolor="#000000"
     borderopacity="0.25"
     inkscape:showpageshadow="2"
     inkscape:pageopacity="0.0"
     inkscape:pagecheckerboard="0"
     inkscape:deskcolor="#d1d1d1">
    <inkscape:page
       x="0"
       y="0"
       inkscape:label="1"
       id="page1"
       width="2023.76"
       height="785"
       margin="0"
       bleed="0" />
  </sodipodi:namedview>
  <g
     id="g1"
     inkscape:groupmode="layer"
     inkscape:label="1">
    <g
       id="group-R5">
      <path
         id="path2"
         d="m 3255.66,3209.66 c -7.34,-277.27 -63.62,-554.31 -71.05,-832.39 -1.68,-75.53 14.63,-153.63 7.36,-229.65 -10.8,-151.16 -180.37,-205.25 -279.94,-106.13 -57.13,56.88 -48.88,119.46 -50.07,194.72 -1.36,85.57 -2.72,171.15 -4.08,256.72 -4.7,295.47 -4.5,590.38 -12.87,885.28 -7.24,255.5 -20.76,518.59 20.27,772.04 14.18,87.57 35.5,211.31 116.6,264.29 59.8,31.61 141.9,38.08 198.03,-19.35 44.34,-50.14 48.94,-136.42 49.39,-206.84 -2.16,-325.02 21.65,-651.1 26.41,-975.36 z m 860.56,342.78 c 1.09,140.39 -5,280.6 -15.22,421.42 -15.29,210.95 44.8,421.24 15.37,632.09 -23.9,169.34 -103.73,299.05 -244.02,395.51 -99.46,68.4 -216.91,137.91 -333.97,171.51 -259.63,75.05 -526.72,24.17 -792.76,31.48 -640,-12.24 -707.52,-364.79 -802.92,-947.5 -13.88,-83.59 -21.44,-175.68 -21.33,-254.9 -7.29,-705.52 18.85,-1415.81 54.38,-2123.04 15.43,-379.58 182.1,-526.97 547.45,-602.08 401.88,-86.04 1237.1,-123.28 1462.07,256.86 75.01,164.61 119.62,312.77 122.55,492.48 3.09,189.22 5.02,378.53 -0.54,567.72 -6.77,230.47 -21.42,459.7 -2.67,689.86 7.32,89.74 10.92,179.2 11.61,268.59"
         style="fill:#ffffff;fill-opacity:1;fill-rule:nonzero;stroke:none"
         transform="matrix(0.13333333,0,0,-0.13333333,0,785)" />
      <path
         id="path3"
         d="m 15174.2,3471.67 c 24.5,338.85 -72.2,672.93 -27.4,1012.66 25.2,629.87 10,755.31 -657.8,711.68 -280.1,-15.63 -339.4,-161.03 -296.1,-410.25 -6.9,-269.04 -0.6,-539.93 -17.7,-809.1 -0.7,-247.52 33.9,-495.88 6.2,-743.63 -19.7,-321.64 67.1,-640.33 22.7,-961.84 -5.9,-43.1 -15.4,-88.81 -46.3,-119.49 -42.2,-42.02 -112.4,-41.88 -167.4,-18.83 -28.9,12.13 -56.2,30.36 -73.4,56.57 -17.7,27.04 -23.3,60.14 -26.2,92.35 -7.5,84.23 -2.4,175.98 14,258.5 18,90.76 14.2,184.33 4.4,275.82 -11.3,106.09 -30.8,211.48 -34.4,318.11 -4.8,142.87 19.1,284.38 29.9,426.43 10.9,144.76 -7.9,288.46 -12.3,433.34 -45.2,487.45 217,1184.1 -363.5,1216.4 -314.6,17.42 -607.1,-45.11 -593.9,-422.97 1.1,-239.47 23.9,-478.55 20.8,-718.84 2.9,-276.29 -3.2,-554.86 7.1,-830.24 -20.5,-1254.07 -338,-2187.84 1301.2,-2024.05 699.6,17.97 947.3,287.32 888.6,1034.51 13.3,203.64 -4,405.5 -15,608.5 5.9,204.14 36.1,406.81 36.4,611.05 l 0.1,3.32"
         style="fill:#ffffff;fill-opacity:1;fill-rule:nonzero;stroke:none"
         transform="matrix(0.13333333,0,0,-0.13333333,0,785)" />
      <path
         id="path4"
         d="m 5602.01,3671.96 c -295.5,-331.16 -274.54,402.8 -245.94,690.66 2.44,39.67 10.44,81.52 44.33,104.79 78.8,55.3 200.71,35.97 231.03,-66.91 19.56,-51.77 20.28,-110.33 19.18,-165.35 -2.79,-80.04 1.03,-161.94 3.52,-244.08 -0.68,-107.76 9.4,-223.03 -50.15,-316.26 z m 13.32,-1672.58 c -22.1,-136.28 -176.84,-129.41 -257.96,-34.23 -66.72,75.68 -53.66,189.23 -53.69,283.35 -0.67,164.9 0.63,328.95 0.44,493.94 0.18,90.12 11.68,212.91 104.1,252.98 46.16,18.35 113.02,3.72 152.13,-34.22 38.72,-35.95 44.89,-90.48 44.55,-142.1 -1.72,-79.66 -7.18,-158.04 -3.11,-237.48 2.68,-192.4 35.19,-387.41 14.17,-579.1 z m 951.73,390.79 c 33.87,316.74 -142.3,583.41 -357.86,798.58 -119.93,148.06 46.49,283.97 152.25,420.4 125.44,169.06 112.83,386.29 156.47,584.46 64.22,343.05 -29.41,710.24 -354.22,871.22 -239.64,138.32 -462.71,88.82 -719.14,88.66 -303.42,27.54 -739.33,98.55 -889.22,-149.14 -71.24,-105.1 -55.79,-277.92 -51.3,-401.85 2.58,-331.54 -8.15,-663.31 29.66,-991.18 32.72,-280.14 -12.5,-561.78 -30.18,-840.83 -2.7,-233.28 23.32,-466.72 -10.93,-699.16 -16.47,-138.35 -3.03,-277.83 -4.1,-415.69 -11.07,-156.83 3.88,-337.55 187.68,-377.31 277.93,-63.24 568,7.76 850.5,1.74 446.97,-32.56 893.08,214.83 1004.16,662.22 13.69,69.08 8.23,137.82 11.49,205.2 2.82,80.11 17.08,158.48 24.45,239.31 l 0.29,3.37"
         style="fill:#ffffff;fill-opacity:1;fill-rule:nonzero;stroke:none"
         transform="matrix(0.13333333,0,0,-0.13333333,0,785)" />
      <path
         id="path5"
         d="m 12625.9,1792.12 c -8.2,112.28 -26.7,250 -109.8,331.35 -151.2,162.45 -500,-48.83 -552.5,192.49 -19.3,130.27 -19.2,272.3 16.8,399.64 59,179.87 222.3,100.81 411.6,137.54 117.8,15.19 192.9,100.25 207.3,218.61 19,129.49 31.3,233.08 16.3,355.88 -9,92.88 -59.3,216.03 -137.9,248.4 -156.1,80.98 -391.9,-34.79 -437.8,94.56 -23.3,86.19 -32.9,187.74 -22.9,280.64 12.7,101.72 74.4,146 169.3,155.78 144.6,16.92 328.9,-22.66 407.6,141.24 54.1,111.52 38.7,237.79 49.1,356.78 15.5,183.84 12.6,403.48 -183.3,455.36 -81.5,20.43 -174.1,11.3 -257.5,10.75 -297.1,-13.39 -854.5,86.56 -1080.7,-111.53 -95.6,-146.8 -53.1,-345.18 -61.9,-512.48 -37.2,-561.14 28.1,-1120.41 -24,-1679.97 -10.1,-90.33 -5.3,-180.52 -10.3,-271.05 -8.8,-102.61 -32.2,-196.73 -26.4,-297.56 12.8,-296.53 18.1,-593.12 20.5,-889.35 31.8,-229.31 377.1,-182.86 546.2,-176.62 561.5,35.37 1177.2,-180.98 1060.6,556.27 l -0.3,3.27"
         style="fill:#ffffff;fill-opacity:1;fill-rule:nonzero;stroke:none"
         transform="matrix(0.13333333,0,0,-0.13333333,0,785)" />
      <path
         id="path6"
         d="m 10615.5,3450.84 c -126.6,71.5 -373.5,-11.54 -386,196.92 -9.1,84.69 12.9,171.51 6.6,256.26 -8.9,112.53 -52.8,275.07 86.5,322.32 100.9,36.25 219.9,-2.84 316.5,48.81 113.2,60.72 167.4,191.25 135.5,312.27 -24.7,152.48 35.3,298.85 -31.6,445.09 -34,129.43 -168.1,134.51 -279.7,128.62 -167.8,22.74 -333.1,34.62 -502.5,29.01 -204.41,1.88 -454.18,49.7 -617.94,-94.29 -72.3,-107.57 -50.41,-282.15 -61.15,-409.13 -49.19,-1031.06 -0.78,-2052.68 -18.09,-3081.07 2.42,-319.11 212.45,-388.29 495.03,-357.89 152.25,15.58 358.65,-4.78 416.25,172.52 66.6,246.36 12.6,506 36.6,758.05 -0.8,126.05 -55.6,271.22 26.7,377.26 102.9,116.2 301.1,24.31 406.1,140.27 139.6,179.82 190.2,624.67 -25.9,753.36 l -2.9,1.62"
         style="fill:#ffffff;fill-opacity:1;fill-rule:nonzero;stroke:none"
         transform="matrix(0.13333333,0,0,-0.13333333,0,785)" />
      <path
         id="path7"
         d="m 1772.86,4499.24 c -17.66,178.1 34.28,466.67 -87.31,588.39 -38.56,31.69 -90.22,42.69 -139.52,52.76 -253.49,48.59 -510.67,60.33 -769.092,57.99 -67.715,-0.94 -134.711,-6.23 -202.434,-4.22 -169.352,2.65 -398.348,85.74 -507.9181,-89.2 C -32.875,4939.45 3.55078,4701.7 21.832,4521.3 c 8.0274,-72.46 19.2578,-153.56 70.918,-209.44 82.094,-91.77 255.434,-31.85 315.73,-152.42 25.129,-49.53 23.067,-116.26 24.754,-177.86 5.168,-298.74 -22.722,-602.47 -19.976,-902.71 2.894,-337.82 55.933,-672.72 68.281,-1009.8 5.426,-227.3 -103.125,-645.47 121.434,-792.61 113.961,-48.21 247.195,-51.53 373.328,-66.63 558.629,-71.12 396.629,412.33 414.099,898.6 -10.35,172.09 17.81,343.81 1.05,515.56 -8.5,85.93 -29,170.52 -33.08,256.91 -5.68,110.01 17.69,220.31 22.68,329.92 11.31,160.52 -4.9,320.81 2.01,481.34 1.63,142.13 -36.13,359.17 8.33,440.92 26.95,48.67 86.13,62.38 134.35,84.89 128.29,49.88 249.47,132.63 247,278.08 l 0.12,3.19"
         style="fill:#ffffff;fill-opacity:1;fill-rule:nonzero;stroke:none"
         transform="matrix(0.13333333,0,0,-0.13333333,0,785)" />
      <path
         id="path8"
         d="m 9379.42,160.582 -0.15,0.199 c 7.78,-3.402 19.32,-16.39 24.06,-23.73 -4.58,6.859 -16.7,18.89 -23.91,23.531 z m 150.02,440.52 c 93.7,-9.973 189.3,1.847 283.55,-1.422 31.99,0.601 62.74,-9.598 94.27,-5.93 80.21,12.199 87.35,116.02 13.5,145.398 l -2.62,1.172 c -25.37,10.95 -54.08,13.711 -81.67,14.762 -92.06,4.18 -190.17,-6.773 -280.19,-1.652 -76.08,7.359 -163.09,28.8 -232.83,-13.02 -68.66,-49.961 -45.34,-174.789 -45.12,-249.82 3.54,-54.981 -21.79,-121.969 20.3,-166.891 41.03,-39.75 100.85,-14.91 151.59,-18.82 111.14,0.371 224.24,5.301 333.79,-14.078 35.76,-7.571 32.56,-42.742 30.81,-77.442 -0.01,-47.839 -46.13,-43.109 -81.54,-43.738 -94.04,-5.492 -188.62,5.481 -281.99,-1.32 -15.1,-0.942 -30.35,-2.43 -45.47,-2.621 -44.23,-0.782 -94.5,18 -127.24,-20.121 -42.17,-44.157 -11.18,-110.4379 42.42,-126.6684 36.64,-13.17185 77.94,-9.74997 116.43,-7.3398 101.95,8.9687 204.87,-3.57033 306.32,2.8594 45.63,3.6289 92.48,-10.76957 137.87,0.5703 61.83,14.5195 81.19,78.8281 84.06,135.1095 8.1,55.832 6.51,113.078 5.06,170.148 2.98,99.043 -61.77,133.332 -152.54,127.223 -64.64,-1.281 -126.22,13.25 -190.33,14.309 -38.86,0.992 -77.84,-1.211 -116.69,-1.52 -23.02,1.172 -48.49,-4.988 -65.73,11.531 -13.32,14.809 -11.35,83.039 -11.79,108.188 3.44,48.051 64.86,20.761 95.78,21.133"
         style="fill:#f25a27;fill-opacity:1;fill-rule:nonzero;stroke:none"
         transform="matrix(0.13333333,0,0,-0.13333333,0,785)" />
      <path
         id="path9"
         d="m 10919.2,734.691 -3.1,0.391 c -170,12.68 -341.6,-5.07 -511.5,-4.723 -28.3,0.661 -59.4,1.321 -83.5,-15.507 -51.3,-32.5 -41.7,-116.172 15.4,-136.391 38.8,-15.012 83.9,-10.941 125.3,-11.563 28,-0.226 60.4,5.043 75.4,-9.668 21.4,-24.82 13.2,-63.558 15,-94.46 -3.1,-79.25 -1.7,-159.141 -7,-238.29 0.8,-59.64 -20.2,-130.73 18.6,-181.9292 53.8,-60.5117 143.8,-10.9219 140.5,65.2302 5.4,122.36 9.9,243.699 12.4,366.18 3.6,29.207 -9.9,65.078 2.8,90.898 7.8,10.469 24,11.082 36.7,11.25 52.6,0.25 105.8,-4.308 158.4,-1.308 106.7,5.558 110.7,148.398 4.6,159.89"
         style="fill:#f25a27;fill-opacity:1;fill-rule:nonzero;stroke:none"
         transform="matrix(0.13333333,0,0,-0.13333333,0,785)" />
      <path
         id="path10"
         d="m 11874,663.648 c 0,-151.269 -6.9,-303.089 -5.1,-455.91 -1.8,-27.008 -24.2,-36.058 -48.2,-36.269 -83.6,-2.688 -169.1,-5.008 -253.4,0.34 -53.4,-0.25 -54.7,32.281 -51.2,76.703 1.4,35.578 2.8,71.148 3.1,106.758 1.5,73.281 -8.1,146.789 -2.2,220.281 9.3,69.601 -2.1,172.871 -95.1,162.379 -66.1,-11.782 -71.3,-78.758 -68.9,-133.809 -8.5,-83.32 0.8,-165.961 0.1,-250.82 -0.3,-73.891 -6.8,-148.211 -6,-222.02 -2.9,-156.3201 111,-122.71069 221.9,-126.63256 92.9,-5.089846 187.3,-2.76953 280.5,1.60156 52.7,8.5898 113.3,-8.83984 156.9,28.6992 32.5,28.1094 32.9,74.0388 31.4,113.9218 -5.4,130.449 -2,260.809 1.3,391.02 l 0.1,3.121 c -0.5,60.109 14.2,136.949 -37,180.84 -48.6,42.117 -126.7,1.816 -128.2,-60.204"
         style="fill:#f25a27;fill-opacity:1;fill-rule:nonzero;stroke:none"
         transform="matrix(0.13333333,0,0,-0.13333333,0,785)" />
      <path
         id="path11"
         d="m 12917.7,184.461 c -2.4,-31.402 -31.2,-29.77 -60.3,-28.41 l -2.8,0.058 c -88.3,3.309 -177.8,5.18 -265.7,-0.629 -23.9,-2.808 -41,6.872 -40.5,32.75 0.2,64.532 -6.3,131 -0.7,195.391 8.3,29.188 45.2,20.867 68.9,22.719 74.5,-2.07 149,2.152 223.8,-3.418 22.5,-3.41 48.7,-1.203 67.9,-13 11,-8.043 12.4,-23.93 12.5,-37.082 -0.2,-55.738 1,-112.008 -3.1,-168.379 z m 147.6,512.508 c -6.2,75.121 -102.9,98.011 -137.3,29.16 -14.9,-29.699 -7.1,-126.328 -11.8,-157.149 -4,-23.41 -27.7,-22.019 -46.2,-19.468 -73.4,9.418 -147.3,4.32 -221.1,6.199 -53.7,1.25 -107.3,-2.262 -160.7,-6.57 -63.5,-2.11 -96.7,-64.512 -92.4,-122.45 -0.8,-106.722 3.4,-213.543 4.4,-320.25 -0.1,-32.2222 4.6,-68.8512 31.9,-89.4215 26.4,-20.64841 62.6,-17.410125 94.6,-15.83981 63.8,4.3789 128.2,7.96094 192.3,8.17187 84.9,-1.12109 169.7,-6.07031 252.4,-6.29297 38.7,-1.84765 78.1,18.88281 86.8,59.06251 20.9,190.1209 10.2,382.7579 7.5,573.4609 l -0.4,61.387"
         style="fill:#f25a27;fill-opacity:1;fill-rule:nonzero;stroke:none"
         transform="matrix(0.13333333,0,0,-0.13333333,0,785)" />
      <path
         id="path12"
         d="m 14010.4,172 -3,0.211 c -39,6.301 -134.4,-25.563 -142.7,30.461 -4,98.859 -5.9,199.84 -10.1,299.34 0.7,21.359 -5.5,49.238 9.3,66.07 13.3,14.68 47.2,9.078 76.2,10.668 51.9,-1.77 116.7,17.43 119.8,78.32 -1.1,103.7 -108.8,80.032 -179.5,84.27 -70.7,4.711 -143,6.211 -214.4,8.371 -59.1,-1.012 -140.5,8.867 -175.4,-49.641 -19.2,-34.078 -3.9,-82.058 29.7,-102.101 41.1,-25.231 98.1,-2.989 144.1,-14.399 33.6,-11.261 22,-54.898 24.9,-82.691 2.1,-96.399 9.9,-193.039 7.5,-287.988 -3.5,-41.301 -45.3,-32.309 -85,-36.789 -62.7,-3.122 -141.7,10.07 -153.8,-73.032 -5.8,-50.6911 42.5,-87.8083 89.8,-91.4411 37,-3.89843 73.9,4.0703 111.1,3.6094 84.7,-3.2774 169.2,-8.96877 253.9,-8.43752 56.5,1.76953 132.8,-4.57031 165.9,51.02732 27,48.5239 -13.9,113.6519 -68.3,114.1719"
         style="fill:#f25a27;fill-opacity:1;fill-rule:nonzero;stroke:none"
         transform="matrix(0.13333333,0,0,-0.13333333,0,785)" />
      <path
         id="path13"
         d="m 14993.6,217.992 c -0.5,-11.601 -2.4,-25.812 -10.2,-33.383 -12.5,-13.539 -42.5,-6.277 -67.9,-5.769 -32.4,1.652 -66.5,2.582 -98.1,3.769 l -2.9,0.09 c -46.5,2.461 -97.9,-0.617 -146.2,0.352 -30.8,0.578 -31.7,32.949 -29.9,56.929 3.4,98.231 -3.2,196.52 -9.1,294.508 -0.7,12.684 -0.2,28.34 7.6,37.371 7.5,9.332 22.6,12.243 35.2,13.153 93.4,6.707 187,-6.41 278.2,-8.942 20.4,0.149 40.9,-5.859 42.4,-29.371 1.9,-29.73 -1,-60.57 -0.8,-90.5 -2,-79.469 4.3,-159.027 1.7,-238.207 z m -18.2,512.16 c -119.1,2.727 -239.7,20.36 -359.3,4.477 -38.6,-1.309 -82.8,6.5 -112.1,-25 -24.7,-23.59 -34,-56.617 -33.5,-89.867 1.9,-107.75 14.4,-215.141 13.1,-323.492 -0.2,-45.469 -1.8,-90.899 -2.2,-136.36 -5,-101.1483 37.5,-138.3006 137.2,-132.8905 111.1,1.9414 223.3,3.9102 333.4,-5.6875 31.9,-2.6015 65,-16.15231 97.7,-11.54294 92.8,20.49224 92.1,79.85934 96,159.92194 9.7,151.199 -4.9,305.258 6.5,456.848 l 0.1,2.722 c 7.6,107.969 -99.6,99.508 -176.9,100.871"
         style="fill:#f25a27;fill-opacity:1;fill-rule:nonzero;stroke:none"
         transform="matrix(0.13333333,0,0,-0.13333333,0,785)" />
      <path
         id="path14"
         d="m 8443.3,5062.18 c 18.52,75.31 26.53,154.56 32.47,232.14 8.28,145.32 2.97,290.72 -16.02,434.89 -6.68,50.75 -7.17,133.49 -61.51,154.24 -57.61,21.99 -78.5,-51.04 -90.19,-95.91 -63.58,-244.15 -39.76,-507.8 59.83,-736.6 15.69,-36.05 66.85,-23.65 75.42,11.24"
         style="fill:#f25a27;fill-opacity:1;fill-rule:nonzero;stroke:none"
         transform="matrix(0.13333333,0,0,-0.13333333,0,785)" />
      <path
         id="path15"
         d="m 7323.61,5101.1 c 2.73,-10.83 5.37,-23.4 10.71,-33.1 3.83,-6.98 9.39,-12.28 15.7,-15.99 l -0.77,-0.01 c 2.96,-1.84 6.3,-3.07 9.74,-4.01 0.84,-0.25 1.69,-0.4 2.55,-0.6 1.34,-0.27 2.65,-0.55 4.02,-0.69 2.09,-0.26 4.18,-0.31 6.28,-0.22 0.36,0.02 0.7,0.01 1.06,0.04 2.14,0.14 4.26,0.49 6.37,1 0.86,0.19 1.69,0.39 2.53,0.63 1.07,0.34 2.11,0.73 3.15,1.15 8.91,3.37 16.69,9.64 20.7,19.19 27.3,65.14 42.74,134.65 43.58,206.42 0.4,34.21 -1.31,71.55 -9.47,104.71 -11.49,46.7 -58.81,73.24 -95.48,38 -33.02,-31.73 -42.04,-83.96 -43.92,-129.48 -1.84,-44.87 4.08,-90.35 11.98,-134.3 3.18,-17.71 6.89,-35.34 11.27,-52.74"
         style="fill:#f25a27;fill-opacity:1;fill-rule:nonzero;stroke:none"
         transform="matrix(0.13333333,0,0,-0.13333333,0,785)" />
      <path
         id="path16"
         d="m 7665.58,2648.09 c 20.95,233.63 71.3,462.33 100,694.75 3.56,28.77 40,40.91 60.49,27.23 115.24,-76.99 118.1,-249.77 134.3,-379.81 10.75,-86.34 23.95,-168.35 45.2,-252.28 19.57,-77.29 32.73,-155.36 37.07,-235.48 3.61,-66.59 6.58,-166.53 -6.25,-261.57 210.84,-5.68 610.69,41.23 609.69,48.76 -8.13,60.65 -47.98,325.79 -58.53,470.06 -23.62,322.7 -57.89,646.16 -64.52,969.86 -3.74,182.84 -1.64,365.75 -6.32,548.56 -3.83,149.38 0.03,319.68 -84.04,446.73 -16.75,25.31 -56.47,32.11 -71.33,-0.5 -60.02,-131.71 -70.45,-285.54 -134.65,-415.21 -5.45,-11.02 -11.25,-23.8 -19.81,-32.44 -10.36,-10.45 -9.58,-9.63 -18.49,4.93 -3.94,6.43 -7.7,12.88 -11.13,19.65 -14.37,28.31 -23.13,59.79 -30.89,90.85 -20.14,80.63 -30.67,163.93 -39.37,246.78 -20.66,196.64 -39.03,392.88 -67.93,588.49 -8.95,60.56 -18.52,121.01 -28.71,181.34 -8.22,48.64 -13.43,99.91 -32.98,145.16 -39.49,91.39 -135.33,92.76 -188.03,14.75 -27.3,-40.42 -41.98,-90.84 -56.83,-137.82 -17.44,-55.21 -31.88,-111.49 -44.84,-168.13 -25.05,-109.34 -44.52,-220.09 -69.59,-329.42 -7.86,-34.25 -54.5,-284.39 -110.89,-260.98 -13.61,5.65 -20.84,31.73 -26.36,44.79 -8.71,20.6 -17.87,40.16 -32.78,56.49 -29.07,31.81 -74.97,48.89 -112.04,22.46 -38.62,-27.54 -39.88,-83.25 -45.69,-127.79 -7.75,-59.37 -14.73,-118.87 -21.08,-178.44 -13,-122.13 -92.47,-857.79 -105.12,-1098.43 -12.67,-241.1 -93.21,-935.05 -115.86,-1055.7 -6.46,-34.37 409.39,-69.37 613.37,-80.09 -18.58,129.15 -7.42,265.79 3.94,392.45"
         style="fill:#f25a27;fill-opacity:1;fill-rule:nonzero;stroke:none"
         transform="matrix(0.13333333,0,0,-0.13333333,0,785)" />
      <path
         id="path17"
         d="m 7581.8,1585.66 c 198.53,4.67 397.22,5.93 596.14,3.11 50.59,-1.1 106.95,-3.73 149.77,-31.43 69.04,-43.43 78.55,-146.09 132.81,-207.63 74.93,-90.02 244.08,-137.1 346.67,-85.89 33.26,18.62 59.19,47.71 81.57,78.54 145.45,181.1 50.76,338.74 -1.08,531.62 -13.52,51.71 -23.83,107.04 -36.82,159.69 -94.08,390.69 -377.66,417.39 -719.56,381.6 -286.72,-15.17 -572.02,-22.51 -857.46,-1.86 -83.43,5.67 -177.89,-1.55 -245.22,-48.87 -142.63,-94.59 -185.74,-301.41 -211.7,-470.13 -18.84,-118.45 -62.93,-234.43 -71.6,-354.47 -16.23,-149.23 75.68,-260.85 221.05,-299.02 109.03,-34.02 222.11,12.03 280.88,108.97 54.38,79.21 64.93,173.03 142.37,206.72 58.1,26.78 125.83,27.33 188.89,28.99 l 3.29,0.06"
         style="fill:#ffffff;fill-opacity:1;fill-rule:nonzero;stroke:none"
         transform="matrix(0.13333333,0,0,-0.13333333,0,785)" />
    </g>
  </g>
</svg>
