<svg version="1.2" xmlns="http://www.w3.org/2000/svg" viewBox="0 0 2024 785" width="2024" height="785">
	<title>Tobafeu Studio Logo</title>
	<style>
		.s0 { fill: #120d0b }
		.s1 { fill: #ec6622 }
	</style>
	<g id="Calque 1" transform="translate(32, 0.5)">
		<path id="&lt;Compound Path&gt;" fill-rule="evenodd" class="s0" d="m532.3 348.4c-2.4 29.6-0.5 59 0.3 88.6 0.7 24.3 0.5 48.6 0.1 72.9-0.4 23.1-6.1 42.1-15.7 63.2-28.9 48.8-136.2 44.1-187.8 33-46.9-9.6-68.3-28.6-70.2-77.3-4.6-90.8-8-182-7-272.6 0-10.2 0.9-22 2.7-32.7 12.3-74.8 20.9-120.1 103.1-121.7 34.2 1 68.5-5.6 101.8 4.1 15 4.3 30.1 13.2 42.9 22 18 12.4 28.2 29 31.3 50.8 3.8 27-3.9 54-2 81.1 1.3 18.1 2.1 36.1 2 54.1-0.1 11.5-0.6 23-1.5 34.5zm-109 9.1c-0.6-41.6-3.7-83.5-3.4-125.2-0.1-9-0.6-20.1-6.3-26.6-7.2-7.3-17.8-6.5-25.5-2.4-10.4 6.8-13.1 22.6-14.9 33.9-5.3 32.5-3.6 66.3-2.6 99.1 1 37.9 1 75.7 1.6 113.7q0.3 16.5 0.5 32.9c0.2 9.7-0.9 17.7 6.5 25 12.8 12.8 34.5 5.8 35.9-13.6 0.9-9.7-1.2-19.8-0.9-29.5 0.9-35.7 8.1-71.2 9.1-106.8z"/>
		<path id="&lt;Path&gt;" class="s0" d="m1953.6 324.3c3.1-43.5-9.3-86.4-3.5-130 3.2-80.9 1.3-97-84.5-91.4-36 2-43.6 20.7-38 52.7-0.9 34.5-0.1 69.3-2.3 103.9-0.1 31.8 4.4 63.6 0.8 95.5-2.5 41.3 8.6 82.2 2.9 123.5-0.7 5.5-1.9 11.4-5.9 15.3-5.4 5.4-14.5 5.4-21.5 2.4-3.7-1.5-7.2-3.9-9.4-7.3-2.3-3.4-3-7.7-3.4-11.8-1-10.8-0.3-22.6 1.8-33.2 2.3-11.7 1.8-23.7 0.6-35.4-1.5-13.6-4-27.2-4.5-40.9-0.6-18.3 2.5-36.5 3.9-54.7 1.4-18.6-1-37-1.6-55.7-5.8-62.5 27.9-152-46.7-156.1-40.4-2.3-77.9 5.8-76.2 54.3 0.1 30.7 3 61.4 2.7 92.3 0.3 35.4-0.5 71.2 0.9 106.6-2.7 161-43.4 280.9 167 259.9 89.9-2.4 121.7-36.9 114.1-132.9 1.7-26.1-0.5-52-1.9-78.1 0.8-26.2 4.6-52.2 4.7-78.5z"/>
		<path id="&lt;Compound Path&gt;" fill-rule="evenodd" class="s0" d="m848.4 463.6c-0.9 10.4-2.8 20.4-3.1 30.7-0.4 8.7 0.3 17.5-1.5 26.4-14.3 57.4-71.5 89.2-128.9 85-36.3-0.8-73.5 8.4-109.2 0.2-23.6-5.1-25.5-28.3-24.1-48.4 0.1-17.7-1.6-35.6 0.5-53.4 4.4-29.8 1.1-59.8 1.4-89.8 2.3-35.8 8.1-71.9 3.9-107.9-4.9-42.1-3.5-84.7-3.8-127.3-0.6-15.9-2.6-38.1 6.6-51.6 19.2-31.8 75.2-22.7 114.1-19.1 33 0 61.6-6.4 92.4 11.4 41.7 20.6 53.7 67.8 45.4 111.8-5.6 25.5-3.9 53.4-20 75.1-13.6 17.5-35 34.9-19.6 53.9 27.7 27.7 50.3 61.9 46 102.6zm-122.1 49.3c2.7-24.6-1.5-49.6-1.8-74.3-0.6-10.2 0.1-20.3 0.4-30.5 0-6.7-0.8-13.7-5.8-18.3-5-4.8-13.6-6.7-19.5-4.4-11.9 5.2-13.3 20.9-13.4 32.5 0.1 21.2-0.1 42.3 0 63.4 0 12.1-1.7 26.7 6.9 36.4 10.4 12.2 30.3 13.1 33.1-4.4zm-1.5-214.7c7.6-12 6.3-26.8 6.4-40.6-0.3-10.6-0.8-21.1-0.5-31.3 0.2-7.1 0.1-14.6-2.4-21.3-3.9-13.2-19.6-15.7-29.7-8.6-4.3 3-5.4 8.4-5.7 13.5-3.6 36.9-6.3 131.2 31.6 88.7z"/>
		<path id="&lt;Path&gt;" class="s0" d="m1626.4 540c-1.1-14.5-3.4-32.1-14.1-42.6-19.4-20.8-64.2 6.3-70.9-24.7-2.5-16.7-2.5-35 2.1-51.3 7.6-23.1 28.6-13 52.9-17.7 15.1-1.9 24.7-12.8 26.6-28 2.4-16.7 4-30 2.1-45.7-1.2-12-7.6-27.8-17.7-31.9-20.1-10.4-50.4 4.4-56.2-12.2-3-11-4.3-24.1-3-36 1.6-13.1 9.6-18.7 21.8-20 18.5-2.2 42.2 2.9 52.3-18.1 6.9-14.4 4.9-30.6 6.3-45.8 2-23.7 1.6-51.9-23.5-58.5-10.5-2.6-22.4-1.5-33.1-1.4-38.2 1.7-109.7-11.1-138.8 14.3-12.2 18.9-6.8 44.3-7.9 65.8-4.8 72.1 3.6 143.9-3.1 215.7-1.3 11.6-0.7 23.2-1.3 34.8-1.1 13.2-4.2 25.3-3.4 38.2 1.6 38.1 2.3 76.2 2.6 114.2 4.1 29.5 48.4 23.5 70.2 22.7 72-4.5 151.1 23.2 136.1-71.4z"/>
		<path id="&lt;Path&gt;" class="s0" d="m1368.3 327c-16.3-9.2-48 1.5-49.6-25.3-1.2-10.9 1.7-22 0.9-32.9-1.2-14.4-6.8-35.3 11.1-41.4 12.9-4.6 28.2 0.4 40.6-6.3 14.5-7.7 21.5-24.5 17.4-40-3.2-19.6 4.5-38.4-4.1-57.2-4.3-16.6-21.5-17.3-35.9-16.5-21.5-2.9-42.7-4.5-64.5-3.7-26.2-0.3-58.3-6.4-79.3 12.1-9.3 13.8-6.5 36.2-7.9 52.5-6.3 132.4-0.1 263.6-2.3 395.6 0.3 41 27.3 49.9 63.5 46 19.6-2 46.1 0.6 53.5-22.2 8.5-31.6 1.6-65 4.7-97.3-0.1-16.2-7.1-34.9 3.4-48.5 13.2-14.9 38.7-3.1 52.2-18 17.9-23.1 24.4-80.2-3.4-96.7z"/>
		<path id="&lt;Path&gt;" class="s0" d="m232.9 192.4c-2.3-22.9 4.4-59.9-11.2-75.6-5-4-11.6-5.5-17.9-6.7-32.6-6.3-65.6-7.8-98.8-7.5-8.7 0.1-17.3 0.8-26 0.6-21.7-0.4-51.1-11.1-65.2 11.4-12.7 21.3-8.1 51.8-5.7 74.9 1 9.3 2.4 19.8 9.1 26.9 10.5 11.8 32.8 4.1 40.5 19.6 3.2 6.4 3 14.9 3.2 22.8 0.7 38.4-2.9 77.4-2.6 115.9 0.4 43.4 7.2 86.4 8.8 129.7 0.7 29.2-13.2 82.9 15.6 101.8 14.6 6.2 31.7 6.6 47.9 8.5 71.8 9.2 51-52.9 53.2-115.4-1.3-22 2.3-44.1 0.1-66.1-1.1-11.1-3.7-21.9-4.2-33-0.7-14.2 2.3-28.3 2.9-42.4 1.4-20.6-0.6-41.2 0.3-61.8 0.2-18.2-4.7-46.1 1-56.6 3.5-6.3 11.1-8 17.3-10.9 16.4-6.4 32-17 31.7-35.7z"/>
		<path id="&lt;Compound Path&gt;" fill-rule="evenodd" class="s1" d="m1216.5 695.6c0.1 3.2-0.2 12 1.5 13.9 2.2 2.1 5.5 1.3 8.5 1.5 5-0.1 10-0.4 15-0.2 8.2 0.1 16.1 2 24.4 1.8 11.6-0.8 20 3.6 19.6 16.3 0.2 7.4 0.4 14.7-0.7 21.9-0.3 7.2-2.8 15.5-10.8 17.3-5.8 1.5-11.8-0.4-17.7 0.1-13 0.8-26.2-0.8-39.3 0.4-4.9 0.3-10.2 0.7-14.9-1-6.9-2-10.9-10.6-5.5-16.2 4.2-4.9 10.7-2.5 16.3-2.6 2 0 3.9-0.2 5.9-0.3 12-0.9 24.1 0.5 36.2-0.2 4.5-0.1 10.5 0.5 10.5-5.6 0.2-4.5 0.6-9-4-10-14.1-2.5-28.6-1.8-42.9-1.8-6.5-0.5-14.1 2.7-19.4-2.4-5.4-5.8-2.2-14.4-2.6-21.4-0.1-9.7-3-25.7 5.8-32.1 8.9-5.4 20.1-2.6 29.9-1.7 11.5 0.7 24.1-0.7 35.9-0.2 3.6 0.1 7.3 0.5 10.5 1.9l0.4 0.2c9.4 3.7 8.5 17.1-1.8 18.6-4 0.5-8-0.8-12.1-0.7-12.1-0.5-24.4 1.1-36.4-0.2-4 0-11.8-3.5-12.3 2.7zm-3.9 56.9c-0.6-1-2.1-2.6-3.1-3.1h0.1c0.9 0.6 2.4 2.2 3 3.1z"/>
		<path id="&lt;Path&gt;" class="s1" d="m1407.3 675.7h-0.4c-21.9-1.6-43.9 0.6-65.7 0.6-3.7-0.1-7.6-0.2-10.7 2-6.6 4.2-5.4 14.9 1.9 17.5 5 1.9 10.8 1.4 16.1 1.5 3.6 0 7.8-0.7 9.7 1.2 2.8 3.2 1.7 8.2 1.9 12.1-0.4 10.2-0.2 20.5-0.9 30.6 0.1 7.7-2.6 16.8 2.4 23.4 6.9 7.8 18.5 1.4 18.1-8.4 0.7-15.7 1.2-31.3 1.6-47 0.4-3.7-1.3-8.3 0.3-11.7 1-1.3 3.1-1.4 4.7-1.4 6.8 0 13.6 0.5 20.4 0.2 13.7-0.8 14.2-19.1 0.6-20.6z"/>
		<path id="&lt;Path&gt;" class="s1" d="m1529.9 684.9c0 19.4-0.9 38.9-0.7 58.5-0.2 3.5-3.1 4.6-6.2 4.6-10.7 0.4-21.7 0.7-32.5 0-6.9 0-7.1-4.1-6.6-9.8 0.2-4.6 0.4-9.2 0.4-13.8 0.2-9.4-1-18.8-0.3-28.2 1.2-9-0.3-22.2-12.2-20.9-8.5 1.5-9.1 10.1-8.8 17.2-1.1 10.7 0.1 21.3 0 32.2-0.1 9.5-0.9 19-0.8 28.5-0.4 20.1 14.2 15.8 28.5 16.3 11.9 0.6 24 0.3 36-0.2 6.8-1.1 14.6 1.1 20.2-3.7 4.1-3.6 4.2-9.5 4-14.7-0.7-16.7-0.3-33.4 0.2-50.2v-0.4c-0.1-7.7 1.8-17.5-4.8-23.2-6.2-5.4-16.2-0.2-16.4 7.8z"/>
		<path id="&lt;Compound Path&gt;" fill-rule="evenodd" class="s1" d="m1682.9 688.5c0.3 24.4 1.7 49.2-1 73.6-1.1 5.1-6.2 7.8-11.2 7.6-10.6-0.1-21.5-0.7-32.4-0.8-8.2 0-16.4 0.5-24.6 1-4.2 0.2-8.8 0.6-12.2-2-3.5-2.7-4.1-7.4-4.1-11.5-0.1-13.7-0.7-27.4-0.5-41.1-0.6-7.5 3.7-15.5 11.8-15.7 6.9-0.6 13.8-1 20.6-0.9 9.5 0.3 19-0.4 28.4 0.8 2.4 0.3 5.5 0.5 6-2.5 0.6-3.9-0.4-16.4 1.5-20.2 4.4-8.8 16.8-5.9 17.6 3.8zm-18.6 36.3c0-1.7-0.2-3.8-1.6-4.8-2.5-1.5-5.8-1.2-8.7-1.7-9.6-0.7-19.2-0.1-28.7-0.4-3.1 0.2-7.8-0.8-8.9 2.9-0.7 8.3 0.1 16.8 0.1 25.1-0.1 3.3 2.1 4.6 5.2 4.2 11.3-0.7 22.8-0.5 34.1-0.1h0.4c3.7 0.2 7.4 0.4 7.7-3.6 0.5-7.2 0.4-14.5 0.4-21.6z"/>
		<path id="&lt;Path&gt;" class="s1" d="m1804.2 748h-0.4c-5-0.9-17.3 3.2-18.4-4-0.5-12.7-0.7-25.6-1.2-38.4 0-2.7-0.8-6.3 1.1-8.5 1.8-1.9 6.1-1.1 9.8-1.3 6.7 0.2 15-2.3 15.4-10.1-0.1-13.3-14-10.3-23-10.8-9.1-0.6-18.4-0.8-27.6-1.1-7.6 0.1-18-1.1-22.5 6.4-2.4 4.4-0.5 10.5 3.8 13.1 5.3 3.2 12.6 0.4 18.5 1.8 4.4 1.5 2.9 7.1 3.2 10.7 0.3 12.3 1.3 24.7 1 36.9-0.5 5.3-5.8 4.2-10.9 4.8-8.1 0.4-18.2-1.3-19.8 9.3-0.7 6.5 5.5 11.3 11.6 11.8 4.7 0.5 9.4-0.6 14.2-0.5 10.9 0.4 21.8 1.2 32.6 1.1 7.3-0.2 17.1 0.6 21.3-6.6 3.5-6.2-1.8-14.6-8.7-14.6z"/>
		<path id="&lt;Compound Path&gt;" fill-rule="evenodd" class="s1" d="m1950.8 689.3v0.3c-1.5 19.5 0.4 39.3-0.9 58.7-0.5 10.3-0.4 17.9-12.3 20.5-4.2 0.6-8.4-1.1-12.5-1.5-14.2-1.2-28.6-1-42.9-0.7-12.8 0.7-18.2-4.1-17.6-17.1 0.1-5.8 0.3-11.6 0.3-17.5 0.2-13.9-1.4-27.7-1.7-41.5 0-4.3 1.2-8.5 4.3-11.6 3.8-4 9.5-3 14.4-3.2 15.4-2 30.9 0.3 46.2 0.6 9.9 0.2 23.6-0.9 22.7 13zm-20.6 22.2c0-3.9 0.3-7.8 0.1-11.6-0.2-3-2.8-3.8-5.5-3.8-11.7-0.3-23.7-2-35.7-1.1-1.6 0.1-3.5 0.4-4.5 1.6-1 1.2-1.1 3.2-1 4.8 0.8 12.6 1.6 25.2 1.2 37.9-0.2 3-0.1 7.2 3.8 7.3 6.2 0.1 12.8-0.3 18.8 0h0.4c4 0.2 8.4 0.3 12.6 0.5 3.2 0.1 7.1 1 8.7-0.7 1-1 1.2-2.8 1.3-4.3 0.3-10.2-0.5-20.4-0.2-30.6z"/>
		<path id="&lt;Path&gt;" class="s1" d="m1089.4 120.1c2.3-9.7 3.4-19.8 4.1-29.8 1.1-18.7 0.4-37.3-2-55.8-0.9-6.6-0.9-17.2-7.9-19.9-7.4-2.8-10.1 6.6-11.6 12.4-8.2 31.3-5.1 65.2 7.7 94.5 2 4.7 8.6 3.1 9.7-1.4z"/>
		<path id="&lt;Path&gt;" class="s1" d="m945.6 115.1c0.3 1.4 0.7 3 1.4 4.3 0.5 0.8 1.2 1.5 2 2h-0.1q0.6 0.3 1.2 0.5 0.2 0.1 0.4 0.1 0.2 0.1 0.5 0.1 0.4 0 0.8 0 0.1 0 0.1 0 0.4 0 0.8-0.1 0.2-0.1 0.4-0.1 0.2-0.1 0.4-0.1c1.1-0.5 2.1-1.3 2.6-2.5 3.5-8.4 5.5-17.3 5.6-26.5 0.1-4.4-0.1-9.2-1.2-13.5-1.5-6-7.5-9.4-12.2-4.8-4.3 4-5.4 10.7-5.7 16.6-0.2 5.7 0.5 11.6 1.6 17.2q0.6 3.4 1.4 6.8z"/>
		<path id="&lt;Path&gt;" class="s1" d="m989.5 430.1c2.7-30 9.2-59.4 12.8-89.2 0.5-3.7 5.2-5.3 7.8-3.5 14.8 9.8 15.2 32 17.3 48.7 1.3 11.1 3 21.6 5.8 32.4 2.5 9.9 4.2 20 4.7 30.3 0.5 8.5 0.9 21.3-0.8 33.5 27.1 0.8 78.4-5.3 78.3-6.2-1-7.8-6.2-41.9-7.5-60.4-3-41.4-7.4-82.9-8.3-124.5-0.5-23.5-0.2-47-0.8-70.4-0.5-19.2 0-41.1-10.8-57.4-2.2-3.2-7.3-4.1-9.2 0.1-7.7 16.9-9 36.6-17.2 53.3-0.7 1.4-1.5 3-2.6 4.1-1.3 1.4-1.2 1.3-2.4-0.6q-0.7-1.2-1.4-2.5c-1.8-3.6-3-7.7-4-11.7-2.5-10.3-3.9-21-5-31.7-2.7-25.2-5-50.4-8.7-75.5q-1.8-11.7-3.7-23.3c-1.1-6.3-1.8-12.8-4.3-18.6-5-11.8-17.3-12-24.1-1.9-3.5 5.2-5.4 11.6-7.3 17.7-2.2 7-4.1 14.3-5.8 21.5-3.2 14.1-5.7 28.3-8.9 42.3-1 4.4-7 36.6-14.2 33.6-1.8-0.8-2.7-4.1-3.4-5.8-1.1-2.6-2.3-5.2-4.2-7.3-3.8-4-9.6-6.2-14.4-2.8-5 3.5-5.1 10.7-5.9 16.4q-1.5 11.4-2.7 22.9c-1.7 15.7-11.9 110.1-13.5 141-1.6 31-11.9 120.1-14.9 135.6-0.8 4.4 52.6 8.9 78.8 10.2-2.4-16.5-1-34.1 0.5-50.3z"/>
		<path id="&lt;Path&gt;" class="s0" d="m978.7 566.5c25.5-0.6 51.1-0.8 76.6-0.4 6.5 0.1 13.7 0.4 19.2 4 8.9 5.6 10.1 18.8 17.1 26.7 9.6 11.5 31.3 17.6 44.5 11 4.3-2.4 7.6-6.1 10.5-10.1 18.6-23.2 6.5-43.5-0.2-68.2-1.7-6.7-3-13.8-4.7-20.6-12.1-50.1-48.5-53.5-92.4-48.9-36.8 1.9-73.4 2.8-110.1 0.2-10.7-0.7-22.8 0.2-31.5 6.3-18.3 12.1-23.8 38.7-27.2 60.3-2.4 15.2-8 30.1-9.2 45.5-2 19.2 9.8 33.5 28.4 38.4 14 4.4 28.5-1.5 36.1-14 7-10.1 8.3-22.2 18.3-26.5 7.4-3.4 16.1-3.5 24.2-3.7z"/>
	</g>
</svg>
