<?xml version="1.0" encoding="UTF-8" standalone="no"?>
<svg
   xmlns:dc="http://purl.org/dc/elements/1.1/"
   xmlns:cc="http://creativecommons.org/ns#"
   xmlns:rdf="http://www.w3.org/1999/02/22-rdf-syntax-ns#"
   xmlns:svg="http://www.w3.org/2000/svg"
   xmlns="http://www.w3.org/2000/svg"
   xmlns:sodipodi="http://sodipodi.sourceforge.net/DTD/sodipodi-0.dtd"
   xmlns:inkscape="http://www.inkscape.org/namespaces/inkscape"
   version="1.1"
   id="svg2"
   xml:space="preserve"
   width="816"
   height="1056"
   viewBox="0 0 816 1056"
   sodipodi:docname="totema-studio-logo-color-transparent.ai"><metadata
     id="metadata8"><rdf:RDF><cc:Work
         rdf:about=""><dc:format>image/svg+xml</dc:format><dc:type
           rdf:resource="http://purl.org/dc/dcmitype/StillImage" /></cc:Work></rdf:RDF></metadata><defs
     id="defs6"><linearGradient
       x1="0"
       y1="0"
       x2="1"
       y2="0"
       gradientUnits="userSpaceOnUse"
       gradientTransform="matrix(-2e-5,-458.25845,-458.25845,2e-5,306.00146,692.21826)"
       spreadMethod="pad"
       id="linearGradient50"><stop
         style="stop-opacity:1;stop-color:#ef4136"
         offset="0"
         id="stop44" /><stop
         style="stop-opacity:1;stop-color:#ef4136"
         offset="0.42662523"
         id="stop46" /><stop
         style="stop-opacity:1;stop-color:#fbb03f"
         offset="1"
         id="stop48" /></linearGradient><linearGradient
       x1="0"
       y1="0"
       x2="1"
       y2="0"
       gradientUnits="userSpaceOnUse"
       gradientTransform="matrix(-2e-5,-458.25839,-458.25839,2e-5,285.0918,692.21875)"
       spreadMethod="pad"
       id="linearGradient72"><stop
         style="stop-opacity:1;stop-color:#ef4136"
         offset="0"
         id="stop66" /><stop
         style="stop-opacity:1;stop-color:#ef4136"
         offset="0.42662523"
         id="stop68" /><stop
         style="stop-opacity:1;stop-color:#fbb03f"
         offset="1"
         id="stop70" /></linearGradient><linearGradient
       x1="0"
       y1="0"
       x2="1"
       y2="0"
       gradientUnits="userSpaceOnUse"
       gradientTransform="matrix(-2e-5,-458.25684,-458.25684,2e-5,412.66309,692.21826)"
       spreadMethod="pad"
       id="linearGradient94"><stop
         style="stop-opacity:1;stop-color:#ef4136"
         offset="0"
         id="stop88" /><stop
         style="stop-opacity:1;stop-color:#ef4136"
         offset="0.42662523"
         id="stop90" /><stop
         style="stop-opacity:1;stop-color:#fbb03f"
         offset="1"
         id="stop92" /></linearGradient><linearGradient
       x1="0"
       y1="0"
       x2="1"
       y2="0"
       gradientUnits="userSpaceOnUse"
       gradientTransform="matrix(-2e-5,-458.25552,-458.25552,2e-5,194.05908,692.21729)"
       spreadMethod="pad"
       id="linearGradient116"><stop
         style="stop-opacity:1;stop-color:#ef4136"
         offset="0"
         id="stop110" /><stop
         style="stop-opacity:1;stop-color:#ef4136"
         offset="0.42662523"
         id="stop112" /><stop
         style="stop-opacity:1;stop-color:#fbb03f"
         offset="1"
         id="stop114" /></linearGradient><linearGradient
       x1="0"
       y1="0"
       x2="1"
       y2="0"
       gradientUnits="userSpaceOnUse"
       gradientTransform="matrix(-2e-5,-458.26459,-458.26459,2e-5,207.61865,692.22314)"
       spreadMethod="pad"
       id="linearGradient138"><stop
         style="stop-opacity:1;stop-color:#ef4136"
         offset="0"
         id="stop132" /><stop
         style="stop-opacity:1;stop-color:#ef4136"
         offset="0.42662523"
         id="stop134" /><stop
         style="stop-opacity:1;stop-color:#fbb03f"
         offset="1"
         id="stop136" /></linearGradient><linearGradient
       x1="0"
       y1="0"
       x2="1"
       y2="0"
       gradientUnits="userSpaceOnUse"
       gradientTransform="matrix(-2e-5,-458.27518,-458.27518,2e-5,396.26855,692.23096)"
       spreadMethod="pad"
       id="linearGradient160"><stop
         style="stop-opacity:1;stop-color:#ef4136"
         offset="0"
         id="stop154" /><stop
         style="stop-opacity:1;stop-color:#ef4136"
         offset="0.42662523"
         id="stop156" /><stop
         style="stop-opacity:1;stop-color:#fbb03f"
         offset="1"
         id="stop158" /></linearGradient><clipPath
       clipPathUnits="userSpaceOnUse"
       id="clipPath170"><path
         d="M 0,792 H 612 V 0 H 0 Z"
         id="path168" /></clipPath></defs><sodipodi:namedview
     pagecolor="#ffffff"
     bordercolor="#666666"
     borderopacity="1"
     objecttolerance="10"
     gridtolerance="10"
     guidetolerance="10"
     inkscape:pageopacity="0"
     inkscape:pageshadow="2"
     inkscape:window-width="640"
     inkscape:window-height="480"
     id="namedview4" /><g
     id="g10"
     inkscape:groupmode="layer"
     inkscape:label="totema-studio-logo-color-transparent"
     transform="matrix(1.3333333,0,0,-1.3333333,0,1056)"><g
       id="g12"
       transform="translate(285.0352,109.1826)"><path
         d="m 0,0 h -14.458 v 16.223 h -1.766 V 0 -1.757 H -14.458 0 1.768 V 0 16.223 H 0 Z"
         style="fill:#ef4136;fill-opacity:1;fill-rule:nonzero;stroke:none"
         id="path14" /></g><path
       d="m 439.742,123.646 h 14.455 v -14.464 h -14.455 z m 14.455,-16.22 h 1.763 v 1.757 14.463 1.759 h -1.763 -14.455 -1.767 v -1.759 -14.463 -1.757 h 1.767 z"
       style="fill:#ef4136;fill-opacity:1;fill-rule:nonzero;stroke:none"
       id="path16" /><g
       id="g18"
       transform="translate(391.4639,107.4258)"><path
         d="M 0,0 H 8.111 V 1.757 H 0 v 14.464 h 8.111 v 1.758 H 0 -1.768 -9.882 v -1.758 h 8.114 V 1.757 H -9.882 V 0 h 8.114 z"
         style="fill:#ef4136;fill-opacity:1;fill-rule:nonzero;stroke:none"
         id="path20" /></g><path
       d="m 341.427,109.183 h -14.465 v 6.354 h 14.465 z m 0,8.113 h -14.465 -1.76 v -1.76 -6.353 -1.757 h 1.76 14.465 1.756 v 1.757 6.353 1.76 8.109 h -1.756 z"
       style="fill:#ef4136;fill-opacity:1;fill-rule:nonzero;stroke:none"
       id="path22" /><g
       id="g24"
       transform="translate(220.5439,125.4053)"><path
         d="M 0,0 H -8.113 V -1.759 H 0 v -16.22 h 1.757 v 16.22 H 9.868 V 0 H 1.757 Z"
         style="fill:#ef4136;fill-opacity:1;fill-rule:nonzero;stroke:none"
         id="path26" /></g><g
       id="g28"
       transform="translate(156.04,125.4053)"><path
         d="m 0,0 v -1.759 -6.35 -1.76 h 1.759 14.464 v -6.354 H 0 v -1.756 h 16.223 1.76 v 1.756 6.354 1.76 H 16.223 1.759 v 6.35 H 17.983 V 0 L 1.759,0 Z"
         style="fill:#ef4136;fill-opacity:1;fill-rule:nonzero;stroke:none"
         id="path30" /></g><g
       id="g32"><g
         id="g34"><g
           id="g40"><g
             id="g42"><path
               d="m 275.139,682.711 c -5.342,-0.774 -10.796,-1.863 -16.384,-3.605 v 0 c -5.557,-1.634 -11.304,-4.032 -16.91,-7.486 v 0 c -2.818,-1.651 -5.545,-3.817 -8.183,-6.104 v 0 c -1.307,-1.164 -2.51,-2.565 -3.734,-3.869 v 0 c -0.62,-0.711 -1.19,-1.239 -1.829,-2.113 v 0 l -1.852,-2.679 -1.747,-2.757 c -0.252,-0.426 -0.608,-1.003 -0.765,-1.313 v 0 l -0.377,-0.804 -1.507,-3.23 -0.533,-1.189 -0.168,-0.505 -0.337,-1.017 -0.596,-2.064 c -0.438,-1.536 -0.449,-2.299 -0.648,-3.433 v 0 c -0.354,-2.281 -0.323,-3.783 -0.409,-5.595 v 0 c -0.04,-6.522 0.67,-11.595 1.342,-16.684 v 0 l 2.217,-14.361 c 0.711,-4.554 1.362,-9.025 1.52,-12.24 v 0 l 0.455,-14.372 1.732,-28.53 c 0.291,-4.654 0.513,-9.27 0.584,-13.773 v 0 c 0.208,-4.591 0.137,-9.028 0.022,-13.446 v 0 c 0.067,-4.506 -0.518,-8.679 -0.816,-12.997 v 0 c -0.042,-0.539 -0.121,-1.06 -0.19,-1.591 v 0 c -2.083,-0.086 -4.155,-0.172 -6.215,-0.23 v 0 c -5.987,-0.174 -11.836,-0.254 -17.453,0.024 v 0 c -2.789,0.14 -5.569,0.275 -8.199,0.584 v 0 c -2.637,0.287 -5.227,0.659 -7.509,1.216 v 0 c -1.229,0.235 -2.287,0.564 -3.305,0.902 v 0 c -24.784,8.234 -33.473,15.57 -33.473,15.57 v 0 l 4.004,-22.978 c 1.023,-5.881 1.548,-12.065 2.233,-18.954 v 0 c 0.784,-6.819 1.429,-14.686 5.233,-23.298 v 0 c 0.823,-2.111 2.192,-4.175 3.39,-6.195 v 0 c 1.474,-1.882 2.832,-3.935 4.571,-5.494 v 0 l 2.522,-2.447 2.668,-2.052 c 1.717,-1.393 3.82,-2.534 5.818,-3.697 v 0 c 3.905,-2.069 5.946,-2.804 9.875,-4.499 v 0 c 3.474,-1.56 7.216,-2.618 10.878,-3.652 v 0 c 7.324,-1.989 15.162,-2.565 20.776,-3.287 v 0 c 1.518,-0.157 2.481,-0.43 3.516,-0.616 v 0 c 0.499,-0.106 0.651,-0.269 1.026,-0.353 v 0 c 0.411,-0.057 0.562,-0.215 0.713,-0.324 v 0 c 0.45,-0.051 0.654,-0.601 1.141,-0.854 v 0 l 0.628,-1.077 c 0.22,-0.356 0.507,-0.66 0.673,-1.298 v 0 c 0.897,-2.003 1.544,-4.798 2.173,-7.552 v 0 c 0.41,-2.957 0.995,-5.562 1.235,-9.067 v 0 c 0.679,-6.658 1.063,-13.147 1.584,-19.63 v 0 c 0.677,-6.473 0.886,-13.067 1.19,-19.638 v 0 c 0.355,-6.557 0.553,-13.173 0.697,-19.803 v 0 c 0.432,-13.228 0.45,-26.566 1.154,-39.915 v 0 c 0.393,-6.678 0.499,-13.336 1.132,-20.021 v 0 c 0.622,-6.69 0.958,-13.346 1.815,-20.013 v 0 c 1.017,-6.67 1.868,-13.334 3.009,-19.892 v 0 l 4.473,-19.451 -1.831,19.881 c -0.312,6.641 -0.312,13.246 -0.484,19.81 v 0 c -0.106,6.559 0.255,13.211 0.349,19.793 v 0 c 0.083,6.589 0.706,13.215 1.021,19.817 v 0 l 2.59,39.762 c 0.443,6.646 0.843,13.312 1.077,20.037 v 0 c 0.273,6.711 0.666,13.406 0.582,20.198 v 0 c -0.057,6.788 -0.006,13.579 -0.215,20.168 v 0 c 0.02,3.15 -0.429,7.122 -0.715,10.764 v 0 c -0.568,3.781 -1.101,7.531 -2.56,11.753 v 0 c -0.246,0.997 -0.803,2.127 -1.355,3.244 v 0 c -0.565,1.112 -1.084,2.204 -1.734,3.298 v 0 c -1.705,2.228 -3.373,4.512 -5.838,6.165 v 0 c -1.17,0.906 -2.368,1.717 -3.545,2.212 v 0 c -1.161,0.546 -2.468,1.21 -3.563,1.565 v 0 c -2.16,0.691 -4.401,1.341 -6.175,1.651 v 0 c -7.466,1.467 -12.914,2.241 -18.33,4.138 v 0 c -2.654,0.984 -5.285,1.909 -7.787,3.25 v 0 c -2.126,1.032 -6.202,2.935 -8.05,4.17 v 0 c -0.799,0.61 -1.657,1.026 -2.459,1.82 v 0 l -1.241,1.026 -0.972,1.106 c -0.759,0.665 -1.074,1.542 -1.691,2.244 v 0 c -0.349,0.899 -0.911,1.585 -1.186,2.616 v 0 c -1.19,2.946 -1.753,7.171 -2.094,12.002 v 0 c 2.894,-0.75 5.731,-1.332 8.519,-1.787 v 0 c 3.491,-0.58 6.882,-0.951 10.264,-1.244 v 0 c 6.736,-0.534 13.262,-0.631 19.658,-0.639 v 0 l 18.348,0.088 12.139,0.058 2.179,11.114 c 1.014,5.221 2.427,10.566 3.018,15.734 v 0 c 0.556,5.146 1.361,10.405 1.469,15.423 v 0 c 0.285,5.084 0.505,10.148 0.441,15.069 v 0 c 0.064,5 -0.025,9.887 -0.173,14.73 v 0 l -0.875,28.461 -0.197,14.137 c -0.222,6.294 -0.995,11.248 -1.643,16.095 v 0 l -1.926,13.86 c -0.538,4.332 -0.943,8.737 -0.847,11.726 v 0 c 0.037,0.387 0.045,0.918 0.077,1.233 v 0 l 1.057,2.171 0.387,0.8 c 0.114,0.221 0.137,0.107 0.209,0.172 v 0 c 0.106,0.054 0.201,0.112 0.272,0.192 v 0 c 0.063,0.075 0.126,0.161 0.158,0.266 v 0 c 0.032,0.099 0.373,0.364 0.53,0.548 v 0 c 0.444,0.396 0.731,0.866 1.207,1.267 v 0 c 1,0.774 1.948,1.636 3.275,2.356 v 0 c 2.483,1.51 5.554,2.894 9.134,3.897 v 0 c 3.493,1.089 7.382,1.868 11.455,2.43 v 0 c 8.153,1.164 16.815,1.413 26.053,1.37 v 0 l 6.909,-0.042 c 2.163,-0.027 4.328,-0.1 6.52,-0.204 v 0 c 4.317,-0.224 8.598,-0.525 12.629,-1.135 v 0 c 4.065,-0.562 7.958,-1.339 11.449,-2.428 v 0 c 3.578,-1 6.651,-2.387 9.142,-3.894 v 0 c 2.595,-1.484 4.261,-3.158 5.485,-4.923 v 0 c 0.722,-0.778 1.025,-1.812 1.568,-2.717 v 0 l 0.157,-0.504 0.12,-0.43 c 0.032,-0.098 -0.051,0.063 -0.072,0.085 v 0 c -0.062,0.106 -0.114,0.218 -0.14,0.338 v 0 c -0.113,0.969 0,-0.404 0.026,-0.842 v 0 c 0.097,-2.995 -0.316,-7.4 -0.849,-11.727 v 0 l -1.919,-13.859 c -0.666,-4.907 -1.411,-9.735 -1.645,-16.009 v 0 l -0.218,-14.484 -0.875,-28.203 c -0.144,-4.846 -0.234,-9.733 -0.168,-14.733 v 0 c -0.066,-4.921 0.151,-9.985 0.439,-15.074 v 0 c 0.104,-5.013 0.909,-10.272 1.465,-15.425 v 0 c 0.599,-5.167 2.01,-10.509 3.023,-15.733 v 0 l 2.186,-11.149 12.176,-0.054 18.341,-0.089 c 6.389,0.012 12.919,0.109 19.655,0.643 v 0 c 3.383,0.274 6.782,0.642 10.28,1.22 v 0 c 2.756,0.456 5.576,1.032 8.459,1.779 v 0 c -0.343,-4.799 -0.915,-8.995 -2.085,-11.916 v 0 c -0.278,-1.035 -0.835,-1.716 -1.197,-2.616 v 0 c -0.607,-0.699 -0.913,-1.57 -1.672,-2.235 v 0 l -0.975,-1.104 -1.234,-1.023 c -0.722,-0.745 -1.838,-1.336 -2.801,-2.017 v 0 c -0.909,-0.716 -2.259,-1.216 -3.354,-1.858 v 0 l -0.867,-0.452 -1.268,-0.602 -2.243,-1.081 c -3.339,-1.659 -5.098,-2.203 -7.748,-3.212 v 0 c -5.41,-1.9 -10.853,-2.671 -18.339,-4.139 v 0 c -1.763,-0.321 -4.005,-0.968 -6.177,-1.658 v 0 c -1.093,-0.358 -2.396,-1.026 -3.562,-1.563 v 0 c -1.184,-0.498 -2.377,-1.318 -3.548,-2.226 v 0 c -2.47,-1.654 -4.145,-3.935 -5.85,-6.164 v 0 c -0.649,-1.101 -1.178,-2.199 -1.738,-3.308 v 0 c -0.548,-1.12 -1.115,-2.261 -1.351,-3.244 v 0 c -2.77,-8.414 -2.966,-15.438 -3.269,-22.472 v 0 l -0.127,-5.224 -0.039,-4.969 -0.048,-9.974 c -0.097,-6.585 0.297,-13.429 0.581,-20.189 v 0 c 0.233,-6.803 0.638,-13.482 1.088,-20.115 v 0 l 2.584,-39.762 c 0.324,-6.602 0.935,-13.228 1.027,-19.817 v 0 c 0.096,-6.589 0.464,-13.221 0.349,-19.811 v 0 c -0.169,-6.588 -0.172,-13.223 -0.475,-19.837 v 0 l -1.824,-19.836 4.487,19.508 c 1.15,6.575 2,13.206 3.027,19.843 v 0 c 0.84,6.65 1.191,13.315 1.807,20.005 v 0 c 0.639,6.685 0.744,13.343 1.142,20.021 v 0 c 0.713,13.349 0.721,26.687 1.163,39.915 v 0 c 0.14,6.646 0.349,13.252 0.697,19.728 v 0 c 0.306,6.523 0.514,12.968 1.173,19.646 v 0 l 0.755,9.93 0.392,4.983 0.441,4.721 c 0.61,6.173 1.613,12.557 3.423,16.662 v 0 c 0.17,0.636 0.443,0.94 0.674,1.293 v 0 l 0.618,1.071 c 0.493,0.255 0.691,0.797 1.134,0.848 v 0 c 0.152,0.106 0.304,0.261 0.707,0.319 v 0 c 0.372,0.08 0.522,0.235 1.03,0.352 v 0 c 1.031,0.187 1.975,0.456 3.507,0.61 v 0 c 5.6,0.717 13.452,1.296 20.775,3.285 v 0 c 3.662,1.008 8.284,2.452 10.928,3.682 v 0 l 2.296,0.963 1.006,0.418 1.381,0.616 c 1.831,0.895 3.651,1.531 5.5,2.692 v 0 c 1.842,1.085 3.683,2.046 5.469,3.493 v 0 l 2.673,2.052 2.533,2.444 c 1.731,1.572 3.105,3.626 4.575,5.5 v 0 c 1.19,2.03 2.567,4.099 3.389,6.219 v 0 c 3.808,8.611 4.454,16.485 5.238,23.306 v 0 c 0.697,6.889 1.211,13.073 2.226,18.954 v 0 l 4.003,22.932 c 0,0 -18.496,-10.592 -33.54,-15.475 v 0 c -1.01,-0.344 -2.059,-0.665 -3.291,-0.895 v 0 c -2.278,-0.561 -4.868,-0.928 -7.51,-1.215 v 0 c -2.623,-0.309 -5.406,-0.443 -8.188,-0.607 v 0 c -5.617,-0.277 -11.471,-0.198 -17.447,-0.015 v 0 c -2.042,0.053 -4.104,0.135 -6.181,0.221 v 0 c -0.065,0.522 -0.135,1.032 -0.175,1.56 v 0 c -0.31,4.322 -0.887,8.494 -0.829,12.999 v 0 c -0.107,4.413 -0.174,8.85 0.032,13.441 v 0 c 0.071,4.503 0.298,9.119 0.574,13.767 v 0 l 1.745,28.791 0.423,14.025 c 0.15,3.233 0.815,7.835 1.533,12.332 v 0 l 2.218,14.355 c 0.665,5.093 1.369,10.168 1.339,16.69 v 0 c -0.12,1.926 0.017,2.947 -0.521,6.26 v 0 l -0.399,2.098 -0.21,0.963 -0.126,0.429 -0.245,0.858 -0.122,0.432 -0.455,1.376 -0.146,0.315 c -1.485,3.344 -2.978,6.712 -5.208,9.663 v 0 c -4.156,6.059 -9.674,10.959 -15.281,14.284 v 0 c -5.608,3.46 -11.349,5.858 -16.899,7.491 v 0 c -5.595,1.748 -11.054,2.832 -16.389,3.606 v 0 c -5.383,0.825 -10.594,1.215 -15.761,1.519 v 0 c -2.556,0.123 -5.141,0.222 -7.737,0.268 v 0 l -7.354,0.063 c -9.764,-0.017 -20.166,-0.286 -30.842,-1.862"
               style="fill:url(#linearGradient50);stroke:none"
               id="path52" /></g></g></g></g><g
       id="g54"><g
         id="g56"><g
           id="g62"><g
             id="g64"><path
               d="m 289.849,319.676 c 0.519,-2.688 0.717,-5.358 0.528,-7.952 v 0 c -0.129,-2.586 -0.591,-5.104 -1.419,-7.535 v 0 c -1.647,-4.877 -4.385,-9.494 -7.592,-14.317 v 0 c -3.103,-4.861 -6.792,-9.922 -9.117,-16.517 v 0 l -0.157,-0.461 -0.057,-0.378 c -0.317,-2.27 -0.533,-4.572 -0.418,-6.908 v 0 c 0.115,-2.32 0.475,-4.624 1.057,-6.859 v 0 c 0.622,-2.213 1.424,-4.333 2.39,-6.317 v 0 c 0.932,-1.992 2.102,-3.83 3.219,-5.597 v 0 c 2.241,-3.559 4.799,-6.697 7.207,-9.901 v 0 c 2.505,-3.176 4.82,-6.342 7.32,-9.769 v 0 c -0.104,2.064 -0.335,4.066 -0.768,6.123 v 0 c -0.382,2.049 -0.984,4.007 -1.559,5.991 v 0 c -0.608,1.961 -1.356,3.851 -2.032,5.745 v 0 c -0.654,1.905 -1.448,3.705 -2.11,5.505 v 0 c -1.318,3.611 -2.396,7.044 -2.908,10.34 v 0 c -0.19,1.665 -0.325,3.287 -0.313,4.923 v 0 c 0.067,1.493 0.241,2.989 0.459,4.486 v 0 c 1.665,4.416 4.654,9.104 7.577,14.202 v 0 c 2.975,5.254 5.979,11.163 6.993,17.754 v 0 c 0.512,3.262 0.61,6.622 0.166,9.876 v 0 c -0.513,3.245 -1.484,6.355 -2.777,9.246 v 0 c -2.743,5.755 -6.672,10.626 -11.3,14.664 v 0 c 2.399,-5.522 4.711,-10.893 5.611,-16.344"
               style="fill:url(#linearGradient72);stroke:none"
               id="path74" /></g></g></g></g><g
       id="g76"><g
         id="g78"><g
           id="g84"><g
             id="g86"><path
               d="m 419.702,363.244 c -0.445,-0.259 -1.027,-0.558 -1.672,-0.987 v 0 c -0.57,-0.496 -1.229,-1.102 -1.96,-1.821 v 0 c -1.36,-1.495 -2.705,-3.672 -3.639,-6.424 v 0 c -0.787,-2.731 -1.39,-5.967 -1.313,-9.388 v 0 c -0.1,-3.465 0.315,-7.075 0.925,-10.853 v 0 c 0.646,-3.737 1.42,-7.665 2.45,-11.561 v 0 c 1.989,-7.864 4.555,-15.946 6.509,-23.867 v 0 c 0.975,-3.948 1.841,-7.887 2.226,-11.613 v 0 c 0.351,-3.709 0.46,-7.299 -0.288,-10.334 v 0 c -0.76,-3.014 -2.135,-5.562 -4.175,-7.685 v 0 c -1.123,-0.97 -2.185,-1.981 -3.528,-2.713 v 0 c -0.639,-0.397 -1.242,-0.842 -1.89,-1.203 v 0 c -0.684,-0.308 -1.369,-0.618 -2.028,-0.917 v 0 c -1.311,-0.682 -2.671,-1.135 -4.015,-1.547 v 0 c -1.319,-0.418 -2.559,-0.991 -3.788,-1.221 v 0 c -2.46,-0.508 -4.569,-1.279 -6.464,-1.543 v 0 c -3.72,-0.676 -5.841,-1.194 -5.841,-1.194 v 0 c 0,0 2.141,-0.455 5.883,-1.021 v 0 c 1.846,-0.339 4.217,-0.369 6.939,-0.475 v 0 c 1.382,-0.106 2.82,0.12 4.36,0.177 v 0 c 1.553,0.053 3.17,0.293 4.871,0.722 v 0 c 0.857,0.188 1.731,0.375 2.627,0.577 v 0 c 0.878,0.267 1.772,0.641 2.69,0.983 v 0 c 1.887,0.576 3.641,1.768 5.488,2.952 v 0 c 3.547,2.591 6.763,6.572 8.349,11.232 v 0 c 1.658,4.639 1.851,9.467 1.615,14.085 v 0 c -0.202,4.657 -1.146,9.084 -2.156,13.418 v 0 c -2.166,8.633 -5.175,16.693 -7.885,24.113 v 0 c -1.363,3.72 -2.68,7.242 -3.821,10.612 v 0 c -1.008,3.359 -2.083,6.54 -2.648,9.463 v 0 c -0.642,2.952 -0.857,5.597 -0.88,8.002 v 0 c 0.19,2.326 0.587,4.39 1.291,5.995 v 0 c 0.4,0.791 0.757,1.502 1.076,2.121 v 0 c 0.399,0.574 0.8,1.025 1.104,1.415 v 0 c 0.628,0.81 0.969,1.232 0.969,1.232 v 0 c 0,0 -0.481,-0.253 -1.381,-0.732"
               style="fill:url(#linearGradient94);stroke:none"
               id="path96" /></g></g></g></g><g
       id="g98"><g
         id="g100"><g
           id="g106"><g
             id="g108"><path
               d="m 190.505,369.709 c -0.815,-0.236 -2.055,-0.333 -3.557,-0.917 v 0 c -1.519,-0.632 -3.497,-1.385 -5.379,-2.995 v 0 c -1.037,-0.69 -1.811,-1.874 -2.807,-2.972 v 0 c -0.678,-1.3 -1.581,-2.743 -1.83,-4.386 v 0 c -0.493,-1.662 -0.473,-3.341 -0.493,-5.14 v 0 c 0.2,-1.686 0.476,-3.48 1.02,-5.107 v 0 c 0.988,-3.359 2.456,-6.593 4.264,-9.595 v 0 c 1.772,-3.052 3.789,-5.989 5.873,-8.787 v 0 l 1.55,-2.109 0.774,-1.038 0.576,-0.849 2.983,-4.34 c 1.161,-1.477 1.574,-2.743 2.396,-4.113 v 0 c 0.665,-1.382 1.634,-2.545 2.147,-4.072 v 0 c 0.584,-1.453 1.212,-2.884 1.857,-4.29 v 0 c 0.728,-1.4 0.899,-2.912 1.427,-4.323 v 0 c 1.046,-2.848 1.496,-5.685 1.982,-8.436 v 0 c 0.113,-0.684 0.291,-1.365 0.348,-2.034 v 0 c 0.014,-0.672 0.006,-1.337 0.046,-1.991 v 0 c 0.083,-1.323 0.157,-2.613 0.226,-3.846 v 0 c 0.184,-1.265 -0.132,-2.408 -0.195,-3.547 v 0 c -0.094,-1.153 -0.177,-2.253 -0.26,-3.279 v 0 c -0.052,-2.117 -0.64,-3.84 -0.944,-5.347 v 0 c -0.67,-2.986 -0.976,-4.843 -0.976,-4.843 v 0 c 0,0 1.146,1.337 3.017,3.954 v 0 c 0.891,1.33 2.262,2.863 3.001,4.993 v 0 c 0.82,2.072 2.149,4.415 2.725,7.18 v 0 c 0.45,2.752 1.538,5.831 1.37,9.103 v 0 c 0.012,1.657 0.012,3.356 0.023,5.09 v 0 c 0.088,1.766 -0.461,3.456 -0.682,5.25 v 0 c -0.45,3.617 -1.688,7.119 -2.992,10.679 v 0 c -0.531,1.799 -1.613,3.525 -2.487,5.279 v 0 c -0.934,1.659 -1.833,3.705 -2.851,5.009 v 0 l -3.062,4.285 -0.945,1.298 -0.841,1.013 -1.661,2.001 c -2.193,2.643 -4.302,5.136 -6.171,7.583 v 0 c -3.777,4.832 -6.64,9.618 -6.703,13.478 v 0 c -0.194,1.032 0.23,1.863 0.281,2.838 v 0 c 0.43,0.828 0.576,1.82 1.175,2.553 v 0 c 1.003,1.599 2.195,2.833 3.252,3.891 v 0 c 1.121,1.027 2.167,1.772 2.801,2.305 v 0 c 0.653,0.545 0.999,0.837 0.999,0.837 v 0 c 0,0 -0.443,-0.088 -1.277,-0.263"
               style="fill:url(#linearGradient116);stroke:none"
               id="path118" /></g></g></g></g><g
       id="g120"><g
         id="g122"><g
           id="g128"><g
             id="g130"><path
               d="m 208.634,411.67 c -0.631,-0.049 -1.393,-0.132 -2.089,-0.537 v 0 c -0.791,-0.277 -1.476,-0.888 -2.16,-1.623 v 0 c -0.546,-0.783 -1.153,-1.703 -1.35,-2.688 v 0 c -0.315,-1.004 -0.411,-1.992 -0.382,-2.992 v 0 c 0.051,-0.989 0.177,-1.958 0.401,-2.878 v 0 c 0.533,-1.829 1.278,-3.528 2.294,-4.889 v 0 c 0.942,-1.41 2.097,-2.522 3.18,-3.327 v 0 c 1.077,-0.818 2.092,-1.339 2.858,-1.596 v 0 c 0.765,-0.267 1.202,-0.356 1.202,-0.356 v 0 c 0,0 -0.151,0.465 -0.429,1.167 v 0 c -0.272,0.67 -0.647,1.622 -1.097,2.773 v 0 c -0.398,1.069 -0.863,2.313 -1.362,3.655 v 0 c -0.286,0.624 -0.376,1.346 -0.673,1.977 v 0 c -0.196,0.659 -0.448,1.329 -0.556,1.989 v 0 c -0.226,0.653 -0.35,1.281 -0.436,1.891 v 0 c -0.021,0.588 -0.24,1.209 -0.166,1.691 v 0 c -0.021,0.539 0.046,0.949 0.083,1.438 v 0 c 0.183,0.357 0.232,0.871 0.519,1.216 v 0 c 0.481,0.78 1.071,1.444 1.816,1.874 v 0 c 0.642,0.445 0.998,0.751 0.998,0.751 v 0 c 0,0 -0.438,0.155 -1.199,0.339 v 0 c -0.276,0.072 -0.589,0.165 -0.99,0.165 v 0 c -0.142,0 -0.295,-0.011 -0.462,-0.04"
               style="fill:url(#linearGradient138);stroke:none"
               id="path140" /></g></g></g></g><g
       id="g142"><g
         id="g144"><g
           id="g150"><g
             id="g152"><path
               d="m 395.348,405.359 c 0.26,-0.598 0.604,-1.301 0.868,-2.158 v 0 c 0.229,-0.856 0.69,-1.715 0.874,-2.762 v 0 c 0.222,-1.021 0.516,-2.084 0.607,-3.244 v 0 c 0.218,-1.132 0.124,-2.356 0.21,-3.58 v 0 c -0.149,-2.482 -0.506,-5.119 -1.254,-7.765 v 0 c -0.673,-2.67 -1.673,-5.316 -2.559,-7.872 v 0 c -0.955,-2.543 -1.83,-4.962 -2.552,-7.094 v 0 c -1.491,-4.256 -1.998,-7.326 -1.998,-7.326 v 0 c 0,0 2.182,2.214 4.841,5.843 v 0 c 1.354,1.806 2.808,4.03 4.188,6.537 v 0 c 0.635,1.296 1.406,2.58 1.927,4.037 v 0 c 0.601,1.403 1.076,2.923 1.571,4.43 v 0 c 0.316,1.571 0.683,3.135 0.798,4.75 v 0 c 0.266,1.583 0.033,3.214 -0.039,4.736 v 0 c -0.425,3.083 -1.462,5.846 -2.805,7.866 v 0 c -0.533,1.078 -1.396,1.832 -1.995,2.577 v 0 c -0.573,0.756 -1.276,1.26 -1.793,1.693 v 0 c -1.067,0.849 -1.707,1.271 -1.707,1.271 v 0 c 0,0 0.293,-0.746 0.818,-1.939"
               style="fill:url(#linearGradient160);stroke:none"
               id="path162" /></g></g></g></g><g
       id="g164"><g
         id="g166"
         clip-path="url(#clipPath170)"><path
           d="m 525.308,178.43 h -42.931 v 14.347 h 42.931 z m 10.224,28.591 h -6.207 -50.968 -6.205 -4.019 v -4.019 -6.207 -22.383 -6.207 -28.587 -4.018 h 4.019 6.205 4.02 v 4.018 24.569 h 42.931 V 139.618 135.6 h 4.017 6.207 4.02 v 4.018 28.587 6.207 22.383 6.207 4.019 z"
           style="fill:#00aeef;fill-opacity:1;fill-rule:nonzero;stroke:none"
           id="path172" /><g
           id="g174"
           transform="translate(447.7549,207.0205)"><path
             d="m 0,0 h -22.388 -6.204 -22.384 -6.2 -4.018 v -4.019 -6.207 -57.176 -4.019 h 4.018 6.2 4.02 v 4.019 53.158 h 14.344 v -53.158 -4.019 h 4.02 6.204 4.021 v 4.019 53.158 h 14.349 v -53.158 -4.019 H 0 h 6.201 4.02 v 4.019 57.176 6.207 V 0 l -4.02,0 z"
             style="fill:#00aeef;fill-opacity:1;fill-rule:nonzero;stroke:none"
             id="path176" /></g><g
           id="g178"
           transform="translate(317.6738,207.0205)"><path
             d="m 0,0 h -6.208 -4.018 v -4.019 -6.207 -22.382 -6.207 -22.38 -6.207 -4.019 H -6.208 0 57.166 61.184 v 4.019 6.207 4.018 H 57.166 4.019 v 14.343 h 53.147 4.018 v 4.019 6.207 4.017 H 57.166 4.019 v 14.347 h 53.147 4.018 v 4.018 6.207 V 0 l -4.018,0 z"
             style="fill:#00aeef;fill-opacity:1;fill-rule:nonzero;stroke:none"
             id="path180" /></g><g
           id="g182"
           transform="translate(266.9746,207.0205)"><path
             d="m 0,0 h -6.205 -28.592 -4.021 v -4.019 -6.207 -4.018 h 4.021 24.574 v -53.158 -4.019 H -6.205 0 4.021 v 4.019 53.158 h 24.568 4.018 v 4.018 6.207 V 0 l -4.018,0 z"
             style="fill:#00aeef;fill-opacity:1;fill-rule:nonzero;stroke:none"
             id="path184" /></g><path
           d="m 164.262,192.776 h 42.93 v -42.933 h -42.93 z m 46.951,14.245 h -50.969 -6.207 -4.019 v -4.019 -6.207 -50.97 -6.207 -4.018 h 4.019 6.207 50.969 6.204 4.021 v 4.018 6.207 50.97 6.207 4.019 h -4.021 z"
           style="fill:#00aeef;fill-opacity:1;fill-rule:nonzero;stroke:none"
           id="path186" /><g
           id="g188"
           transform="translate(111.252,207.0205)"><path
             d="m 0,0 h -6.195 -28.588 -4.021 v -4.019 -6.207 -4.018 h 4.021 24.569 v -53.158 -4.019 H -6.195 0 4.019 v 4.019 53.158 h 24.574 4.018 v 4.018 6.207 V 0 l -4.018,0 z"
             style="fill:#00aeef;fill-opacity:1;fill-rule:nonzero;stroke:none"
             id="path190" /></g></g></g></g></svg>
