<svg xmlns="http://www.w3.org/2000/svg" viewBox="143.88 384 480.25 129.87">
  <title>GitHub</title>
  <g fill="current" transform="matrix(1.3333333,0,0,-1.3333333,0,640.93333) scale(0.1)">
    <path
      d="m 1772.81,1510.13 h -302.67 c -7.81,0 -14.14,-6.34 -14.14,-14.15 V 1348 c 0,-7.81 6.33,-14.17 14.14,-14.17 h 118.07 v -183.85 c 0,0 -26.51,-9.04 -99.81,-9.04 -86.47,0 -207.27,31.6 -207.27,297.23 0,265.7 125.79,300.65 243.88,300.65 102.23,0 146.26,-17.99 174.29,-26.67 8.81,-2.7 16.95,6.07 16.95,13.89 l 33.76,142.97 c 0,3.67 -1.24,8.06 -5.4,11.05 -11.38,8.12 -80.81,46.97 -256.21,46.97 -202.05,0 -409.32,-85.96 -409.32,-499.22 0,-413.26 237.3,-474.841 437.27,-474.841 165.57,0 266.01,70.751 266.01,70.751 4.14,2.29 4.59,8.08 4.59,10.72 v 461.54 c 0,7.81 -6.33,14.15 -14.14,14.15" />
    <path
      d="m 3332.65,1877.51 c 0,7.88 -6.24,14.23 -14.06,14.23 h -170.42 c -7.78,0 -14.11,-6.35 -14.11,-14.23 0,-0.03 0.05,-329.34 0.05,-329.34 h -265.65 v 329.34 c 0,7.88 -6.26,14.23 -14.06,14.23 h -170.41 c -7.75,0 -14.08,-6.35 -14.08,-14.23 V 985.742 c 0,-7.871 6.33,-14.262 14.08,-14.262 h 170.41 c 7.8,0 14.06,6.391 14.06,14.262 v 381.448 h 265.65 c 0,0 -0.47,-381.42 -0.47,-381.448 0,-7.871 6.32,-14.262 14.12,-14.262 h 170.82 c 7.81,0 14.05,6.391 14.07,14.262 v 891.768" />
    <path
      d="m 2094.4,1760.5 c 0,61.36 -49.19,110.95 -109.89,110.95 -60.64,0 -109.88,-49.59 -109.88,-110.95 0,-61.31 49.24,-111.04 109.88,-111.04 60.7,0 109.89,49.73 109.89,111.04" />
    <path
      d="m 2082.22,1173.86 c 0,22.85 0,411.64 0,411.64 0,7.82 -6.31,14.21 -14.1,14.21 h -169.89 c -7.79,0 -14.76,-8.04 -14.76,-15.85 0,0 0,-495.34 0,-589.77 0,-17.328 10.8,-22.488 24.77,-22.488 0,0 72.52,0 153.06,0 16.8,0 20.92,8.25 20.92,22.769 0,31.609 0,155.449 0,179.489" />
    <path
      d="m 3980.32,1598.37 h -169.11 c -7.75,0 -14.07,-6.4 -14.07,-14.27 v -437.25 c 0,0 -42.97,-31.44 -103.95,-31.44 -60.97,0 -77.15,27.67 -77.15,87.37 0,59.79 0,381.32 0,381.32 0,7.87 -6.3,14.27 -14.07,14.27 h -171.64 c -7.74,0 -14.09,-6.4 -14.09,-14.27 0,0 0,-232.85 0,-410.18 0,-177.361 98.84,-220.748 234.81,-220.748 111.56,0 201.5,61.638 201.5,61.638 0,0 4.28,-32.49 6.22,-36.33 1.93,-3.839 6.98,-7.73 12.44,-7.73 l 109.19,0.492 c 7.74,0 14.09,6.399 14.09,14.238 l -0.06,598.62 c 0,7.87 -6.31,14.27 -14.11,14.27" />
    <path
      d="m 4375.84,1115.95 c -58.66,1.78 -98.45,28.41 -98.45,28.41 v 282.4 c 0,0 39.25,24.06 87.41,28.36 60.9,5.46 119.58,-12.94 119.58,-158.22 0,-153.19 -26.48,-183.42 -108.54,-180.95 z m 66.7,502.45 c -96.05,0 -161.38,-42.85 -161.38,-42.85 v 301.96 c 0,7.88 -6.3,14.23 -14.06,14.23 h -170.91 c -7.77,0 -14.08,-6.35 -14.08,-14.23 V 985.742 c 0,-7.871 6.31,-14.262 14.1,-14.262 0.02,0 118.54,0 118.58,0 5.34,0 9.38,2.75 12.37,7.559 2.95,4.801 7.2,41.131 7.2,41.131 0,0 69.88,-66.229 202.17,-66.229 155.32,0 244.39,78.779 244.39,353.659 0,274.88 -142.26,310.8 -238.38,310.8" />
    <path
      d="m 2572.02,1599.79 h -127.84 c 0,0 -0.19,168.84 -0.19,168.88 0,6.4 -3.3,9.59 -10.69,9.59 h -174.2 c -6.78,0 -10.41,-2.98 -10.41,-9.49 v -174.52 c 0,0 -87.3,-21.08 -93.21,-22.77 -5.87,-1.71 -10.2,-7.13 -10.2,-13.6 v -109.67 c 0,-7.89 6.3,-14.25 14.09,-14.25 h 89.32 c 0,0 0,-114.7 0,-263.84 0,-195.968 137.46,-215.222 230.21,-215.222 42.39,0 93.09,13.622 101.46,16.704 5.06,1.867 8,7.109 8,12.8 l 0.15,120.638 c 0,7.86 -6.65,14.24 -14.13,14.24 -7.46,0 -26.51,-3.04 -46.13,-3.04 -62.8,0 -84.07,29.2 -84.07,66.99 0,37.77 -0.01,250.73 -0.01,250.73 h 127.85 c 7.79,0 14.1,6.36 14.1,14.25 v 137.37 c 0,7.87 -6.31,14.21 -14.1,14.21" />
  </g>
</svg>