<svg width="70" height="24" viewBox="0 0 70 24" version="1.1" xmlns="http://www.w3.org/2000/svg" xmlns:xlink="http://www.w3.org/1999/xlink" xml:space="preserve" xmlns:serif="http://www.serif.com/" style="fill-rule:evenodd;clip-rule:evenodd;stroke-linejoin:round;stroke-miterlimit:2;">
    <g transform="matrix(0.0904079,0,0,0.0904079,-1.43605,0.513947)">
        <path d="M142.8,120.1C137.1,120.1 132.6,125 132.6,131.1C132.6,137.2 137.2,142.1 142.8,142.1C148.5,142.1 153,137.2 153,131.1C153,125 148.4,120.1 142.8,120.1ZM106.3,120.1C100.6,120.1 96.1,125 96.1,131.1C96.1,137.2 100.7,142.1 106.3,142.1C112,142.1 116.5,137.2 116.5,131.1C116.6,125 112,120.1 106.3,120.1Z" style="fill:rgb(114,137,218);fill-rule:nonzero;"/>
    </g>
    <g transform="matrix(0.0904079,0,0,0.0904079,-1.43605,0.513947)">
        <path d="M191.4,36.9L57.4,36.9C46.1,36.9 36.9,46.1 36.9,57.4L36.9,191.4C36.9,202.7 46.1,211.9 57.4,211.9L170.8,211.9L165.5,193.6L178.3,205.4L190.4,216.5L212,235.2L212,57.4C211.9,46.1 202.7,36.9 191.4,36.9ZM152.8,166.4C152.8,166.4 149.2,162.1 146.2,158.4C159.3,154.7 164.3,146.6 164.3,146.6C160.2,149.3 156.3,151.2 152.8,152.5C147.8,154.6 143,155.9 138.3,156.8C128.7,158.6 119.9,158.1 112.4,156.7C106.7,155.6 101.8,154.1 97.7,152.4C95.4,151.5 92.9,150.4 90.4,149C90.1,148.8 89.8,148.7 89.5,148.5C89.3,148.4 89.2,148.3 89.1,148.3C87.3,147.3 86.3,146.6 86.3,146.6C86.3,146.6 91.1,154.5 103.8,158.3C100.8,162.1 97.1,166.5 97.1,166.5C75,165.8 66.6,151.4 66.6,151.4C66.6,119.5 81,93.6 81,93.6C95.4,82.9 109,83.2 109,83.2L110,84.4C92,89.5 83.8,97.4 83.8,97.4C83.8,97.4 86,96.2 89.7,94.6C100.4,89.9 108.9,88.7 112.4,88.3C113,88.2 113.5,88.1 114.1,88.1C120.2,87.3 127.1,87.1 134.3,87.9C143.8,89 154,91.8 164.4,97.4C164.4,97.4 156.5,89.9 139.5,84.8L140.9,83.2C140.9,83.2 154.6,82.9 168.9,93.6C168.9,93.6 183.3,119.5 183.3,151.4C183.3,151.3 174.9,165.7 152.8,166.4ZM303.8,79.7L270.6,79.7L270.6,117L292.7,136.9L292.7,100.7L304.5,100.7C312,100.7 315.7,104.3 315.7,110.1L315.7,137.8C315.7,143.6 312.2,147.5 304.5,147.5L270.5,147.5L270.5,168.6L303.7,168.6C321.5,168.7 338.2,159.8 338.2,139.4L338.2,109.6C338.3,88.8 321.6,79.7 303.8,79.7ZM477.8,139.4L477.8,108.8C477.8,97.8 497.6,95.3 503.6,106.3L521.9,98.9C514.7,83.1 501.6,78.5 490.7,78.5C472.9,78.5 455.3,88.8 455.3,108.8L455.3,139.4C455.3,159.6 472.9,169.7 490.3,169.7C501.5,169.7 514.9,164.2 522.3,149.8L502.7,140.8C497.9,153.1 477.8,150.1 477.8,139.4ZM417.3,113C410.4,111.5 405.8,109 405.5,104.7C405.9,94.4 421.8,94 431.1,103.9L445.8,92.6C436.6,81.4 426.2,78.4 415.5,78.4C399.2,78.4 383.4,87.6 383.4,105C383.4,121.9 396.4,131 410.7,133.2C418,134.2 426.1,137.1 425.9,142.1C425.3,151.6 405.7,151.1 396.8,140.3L382.6,153.6C390.9,164.3 402.2,169.7 412.8,169.7C429.1,169.7 447.2,160.3 447.9,143.1C448.9,121.4 433.1,115.9 417.3,113ZM350.3,168.5L372.7,168.5L372.7,79.7L350.3,79.7L350.3,168.5ZM728,79.7L694.8,79.7L694.8,117L716.9,136.9L716.9,100.7L728.7,100.7C736.2,100.7 739.9,104.3 739.9,110.1L739.9,137.8C739.9,143.6 736.4,147.5 728.7,147.5L694.7,147.5L694.7,168.6L728,168.6C745.8,168.7 762.5,159.8 762.5,139.4L762.5,109.6C762.5,88.8 745.8,79.7 728,79.7ZM565.1,78.5C546.7,78.5 528.4,88.5 528.4,109L528.4,139.3C528.4,159.6 546.8,169.8 565.3,169.8C583.7,169.8 602,159.6 602,139.3L602,109C602,88.6 583.5,78.5 565.1,78.5ZM579.5,139.3C579.5,145.7 572.3,149 565.2,149C558,149 550.8,145.9 550.8,139.3L550.8,109C550.8,102.5 557.8,99 564.8,99C572.1,99 579.5,102.1 579.5,109L579.5,139.3ZM682.4,109C681.9,88.2 667.7,79.8 649.4,79.8L613.9,79.8L613.9,168.6L636.6,168.6L636.6,140.4L640.6,140.4L661.2,168.6L689.2,168.6L665,138.1C675.7,134.7 682.4,125.4 682.4,109ZM649.8,121L636.6,121L636.6,100.7L649.8,100.7C663.9,100.7 663.9,121 649.8,121Z" style="fill:rgb(114,137,218);fill-rule:nonzero;"/>
    </g>
</svg>
